<svg width="113" height="17" viewBox="0 0 113 17" fill="none" xmlns="http://www.w3.org/2000/svg">
    <path d="M1.635 15 7.576 3.469v-.07H.738V2.272h8.157v1.178L2.953 15H1.635zm9.65 0V2.273h7.436v1.125h-6.188v4.676h5.608v1.108h-5.608V15h-1.248zm15.012.088a.942.942 0 0 1-.95-.932c0-.527.422-.949.95-.949a.942.942 0 0 1 0 1.88zM46.055.973v8.173h-.58V.973h.58zm-9.035 9.035v2.32h8.472v-2.32h.563v5.994h-9.58v-5.994h.544zm0 5.502h8.472v-2.655H37.02v2.655zm.896-13.711c2.25.017 3.832 1.389 3.832 3.445 0 2.057-1.582 3.428-3.832 3.41-2.268.018-3.85-1.353-3.832-3.41-.018-2.056 1.564-3.428 3.832-3.445zm0 .51c-1.916.017-3.305 1.265-3.287 2.935-.018 1.635 1.371 2.9 3.287 2.9s3.305-1.265 3.305-2.9c0-1.67-1.389-2.918-3.305-2.935zm18.457.826c0 2.478 3.744 4.254 5.713 4.623l-.264.474c-1.942-.439-4.895-1.81-5.695-3.955-.844 2.145-3.823 3.516-5.73 3.955l-.264-.474c1.969-.37 5.695-2.145 5.695-4.623v-.528h-5.29v-.51h11.126v.51h-5.291v.528zm6.697 6.803v.527h-6.697v5.765h-.545v-5.765h-6.68v-.527H63.07zm6.276-4.22c0 2.655 2.408 5.415 4.289 6.382l-.387.457C71.631 11.65 69.741 9.595 69.1 7.3c-.624 2.408-2.505 4.614-4.114 5.572l-.386-.457c1.863-1.02 4.218-3.937 4.218-6.697v-3.27h.528v3.27zM76.324.974v6.504h2.83v.527h-2.83v8.262h-.562V.973h.562zM96.082.955v4.922h2.514v.51h-2.514v5.976h-.563V.955h.563zm.844 14.361v.528H86.853v-4.64h.545v4.112h9.528zM88.61 2.15c2.215 0 3.832 1.495 3.832 3.64 0 2.161-1.617 3.655-3.832 3.655-2.232 0-3.85-1.494-3.832-3.656-.017-2.144 1.6-3.639 3.832-3.639zm0 .51c-1.88 0-3.287 1.389-3.287 3.13 0 1.757 1.407 3.128 3.287 3.128 1.881 0 3.287-1.371 3.305-3.129-.018-1.74-1.424-3.129-3.305-3.129zM112.764.973v15.293h-.563v-8.21h-2.988v7.348h-.563V1.394h.563V7.53h2.988V.973h.563zm-11.426 2.004v8.543h.316c1.705 0 3.498-.123 5.625-.563l.106.563a29.14 29.14 0 0 1-5.731.527h-.896v-9.07h.58z" fill="#fff"/>
</svg>
