<svg width="62" height="24" viewBox="0 0 62 24" fill="none" xmlns="http://www.w3.org/2000/svg">
    <path d="M18.875 11.083a3.209 3.209 0 1 0 6.417 0 3.209 3.209 0 0 0-6.417 0zM27.125 16.125l-2.75-2.75" stroke="#fff" stroke-width=".8" stroke-linecap="round" stroke-linejoin="round"/>
    <path d="M34.477 9.063c-.008 1.82-1.204 3.093-3.258 3.671l-.352-.68c1.582-.433 2.52-1.257 2.68-2.288H31.25v-.704h3.227zm2.257-.422v3.976h-.867v-1.539h-1.36v-.71h1.36V8.64h.867zm0 4.257v2.704h-4.648v-2.704h4.648zm-3.797.688v1.328h2.938v-1.328h-2.938zm7-3.672c0 .79.438 1.57 1.368 1.938l-.47.664a2.372 2.372 0 0 1-1.304-1.282c-.265.641-.726 1.18-1.398 1.47l-.461-.673a2.35 2.35 0 0 0 1.43-2.117v-.86h.836v.86zm3.836-1.273v4.273h-.828v-1.797h-.703v1.758h-.812V8.758h.812v1.64h.703V8.641h.828zm0 4.609v2.445h-.867v-1.75h-3.968v-.695h4.835z" fill="#fff"/>
    <rect x=".25" y=".25" width="61.5" height="23.5" rx="3.75" stroke="#595959" stroke-width=".5"/>
</svg>
