<svg width="42" height="24" viewBox="0 0 42 24" fill="none" xmlns="http://www.w3.org/2000/svg">
    <g opacity=".3">
        <path d="M15.824 9.348c0 .947.713 1.875 2.1 2.246l-.488.83c-1.026-.269-1.748-.855-2.14-1.611-.395.83-1.137 1.474-2.177 1.777l-.517-.86c1.396-.37 2.138-1.347 2.138-2.382v-.03h-1.845V8.46h1.845v-.957h1.094v.957h1.836v.86h-1.846v.029zm3.79-1.807v2.05h1.23v.9h-1.23V12.6h-1.085V7.54h1.084zm.126 5.469v.869h-2.334c.205.732 1.197 1.416 2.705 1.63l-.39.83c-1.382-.194-2.427-.785-2.94-1.591-.508.8-1.543 1.377-2.91 1.572l-.4-.82c1.513-.21 2.495-.87 2.705-1.621h-2.344v-.87h5.908zm8.926-5.469v8.828h-1.094V7.541h1.094zm-2.637.938c0 2.627-1.015 4.863-4.111 6.328l-.566-.87c2.31-1.098 3.383-2.592 3.574-4.6H21.8V8.48h4.228z" fill="#AFAFAF"/>
        <rect x=".25" y=".25" width="41.5" height="23.5" rx="3.75" stroke="#595959" stroke-width=".5"/>
    </g>
</svg>
