<svg width="14" height="14" viewBox="0 0 14 14" fill="none" xmlns="http://www.w3.org/2000/svg">
    <circle cx="7" cy="7" r="4.8" stroke="#FF453A" stroke-width=".9"/>
    <g clip-path="url(#nhu84vz9ca)">
        <path d="m8.434 3.93-.83.267.265.83M3.774 7.63l.736.468.467-.737M8.819 9.814l.156-.858-.857-.156" stroke="#FF453A" stroke-width=".9" stroke-linecap="round" stroke-linejoin="round"/>
        <path d="M5.45 8.645a.45.45 0 1 0-.62.653l.62-.653zm1.022 1.02-.09.441.09-.44zm1.091 0 .09.441-.09-.44zm-2.732-.367a3.17 3.17 0 0 0 1.551.808l.18-.882a2.271 2.271 0 0 1-1.112-.579l-.62.653zm1.551.808a3.2 3.2 0 0 0 .636.064v-.9c-.157 0-.31-.016-.457-.046l-.179.882zm.636.064a3.2 3.2 0 0 0 .635-.064l-.18-.882c-.146.03-.299.046-.455.046v.9zm.635-.064a3.17 3.17 0 0 0 1.551-.808l-.619-.653a2.271 2.271 0 0 1-1.111.58l.179.881zM6.561 4.758a.45.45 0 0 0-.179-.882l.18.882zm-1.42.253-.31-.327.31.327zm-.627.893.413.18-.413-.18zm1.868-2.028a3.171 3.171 0 0 0-1.551.808l.62.653a2.271 2.271 0 0 1 1.11-.58l-.179-.881zm-1.551.808a3.185 3.185 0 0 0-.73 1.04l.826.36c.123-.283.302-.537.523-.747l-.62-.653zm-.73 1.04c-.169.39-.262.818-.262 1.267h.9c0-.323.067-.63.188-.907l-.826-.36zM3.84 6.992c0 .45.094.878.262 1.266l.826-.358a2.272 2.272 0 0 1-.188-.908h-.9zM9.109 7.898a.45.45 0 1 0 .825.36l-.825-.36zm.412-1.994.413-.179-.413.18zm-.626-.893-.31.326.31-.326zm1.039 3.247c.169-.39.262-.818.262-1.267h-.9c0 .324-.067.63-.187.907l.825.36zm.262-1.267c0-.45-.093-.878-.262-1.266l-.826.358c.121.278.188.585.188.908h.9zm-.262-1.266a3.186 3.186 0 0 0-.73-1.041l-.619.653c.221.21.4.463.524.747l.825-.36zm-.73-1.041a3.171 3.171 0 0 0-1.551-.808l-.18.882c.426.086.808.29 1.112.58l.62-.654z" fill="#FF453A"/>
    </g>
    <defs>
        <clipPath id="nhu84vz9ca">
            <path fill="#fff" transform="translate(3.16 3.16)" d="M0 0h7.2v7.2H0z"/>
        </clipPath>
    </defs>
</svg>
