<svg width="326" height="447" viewBox="0 0 326 447" fill="none" xmlns="http://www.w3.org/2000/svg">
    <g clip-path="url(#w96xikwe3a)">
        <rect width="326" height="447" rx="4" fill="#fff"/>
        <path fill="#191919" d="M0 0h326v447H0z"/>
        <path d="M255 0h71v447h-55L255 0zM0 0h237l4 105H0V0zM0 200h151v18H0zM0 123h67.167L77.5 170l5.5 30H0v-77zM0 218h151l30 138H0V218zM0 356h135v91H0zM135 408h117l1 39H135v-39z" fill="#555"/>
        <path fill="#333" d="M135 356h46v36h-46z"/>
        <path opacity=".5" d="M169 123h72l4 77h-76v-77z" fill="#000"/>
        <path d="M169 121h73l1 36h-74v-36zM193 171a5 5 0 0 1 5-5h18a5 5 0 0 1 5 5v29h-28v-29zM67 123h32v29H73.667L67 123z" fill="#333"/>
        <path d="M194 334h55l1 23h-51l-5-23z" fill="#0D0D0D"/>
        <path d="M199 357h51l2 35h-53v-35z" fill="#333"/>
        <path fill="#555" d="M99 123h52v29H99zM76 170h75v30H82.716L76 170z"/>
        <path d="M169 220h76l4 96h-59.5L169 220z" fill="#0D0D0D"/>
        <path d="M169 220h76l1 30h-70l-7-30z" fill="#333"/>
        <g opacity=".45" stroke="#fff" stroke-width=".8">
            <rect opacity=".4" x="199.4" y="134.4" width="13.2" height="13.2" rx="1.6"/>
            <g clip-path="url(#0i3pa2twvb)" stroke-linecap="round" stroke-linejoin="round">
                <path d="M203.083 138.083c0 .221.088.433.244.59a.837.837 0 0 0 1.179 0 .837.837 0 0 0 0-1.179.833.833 0 0 0-1.423.589zM203.083 145.167v-2.084l-.416-.416V141a.417.417 0 0 1 .416-.417h1.667a.417.417 0 0 1 .417.417v1.667l-.417.416v2.084M207.25 138.083a.833.833 0 1 0 1.666.001.833.833 0 0 0-1.666-.001zM207.25 145.167V143.5h-.833l.833-2.5a.417.417 0 0 1 .417-.417h.833a.417.417 0 0 1 .417.417l.833 2.5h-.833v1.667"/>
            </g>
            <rect opacity=".4" x="240.4" y="3.4" width="13.2" height="13.2" rx="1.6"/>
            <g clip-path="url(#w5giawwolc)" stroke-linecap="round" stroke-linejoin="round">
                <path d="M247.417 10v.004M243.25 13.75h7.5M244.083 13.75V7.083a.834.834 0 0 1 .834-.833h2.5m1.666 4.375v3.125M250.75 7.917h-2.917m0 0 1.25-1.25m-1.25 1.25 1.25 1.25"/>
            </g>
            <rect opacity=".4" x="255.4" y="427.4" width="13.2" height="13.2" rx="1.6"/>
            <g clip-path="url(#fsc5ju8tsd)" stroke-linecap="round" stroke-linejoin="round">
                <path d="M262.417 434v.004M258.25 437.75h7.5M259.083 437.75v-6.667a.833.833 0 0 1 .834-.833h2.5m1.666 4.375v3.125M265.75 431.917h-2.917m0 0 1.25-1.25m-1.25 1.25 1.25 1.25"/>
            </g>
            <rect opacity=".4" x="200.4" y="176.4" width="13.2" height="13.2" rx="1.6"/>
            <path d="M210 180.5h-1.5v1.667H207v1.666h-1.5v1.667H204" stroke-linecap="round" stroke-linejoin="round"/>
            <rect opacity=".4" x="6.4" y="107.4" width="13.2" height="13.2" rx="1.6"/>
            <path d="M16 111.5h-1.5v1.667H13v1.666h-1.5v1.667H10" stroke-linecap="round" stroke-linejoin="round"/>
            <rect opacity=".4" x="183.4" y="229.4" width="13.2" height="13.2" rx="1.6"/>
            <g clip-path="url(#nvu3hsyrae)" stroke-linecap="round" stroke-linejoin="round">
                <path d="M187.083 233.083a.416.416 0 0 1 .417-.416h5a.416.416 0 0 1 .417.416v5.834a.416.416 0 0 1-.417.416h-5a.416.416 0 0 1-.417-.416v-5.834z"/>
                <path d="m189.167 235.167.833-.834.833.834M189.167 236.833l.833.834.833-.834"/>
            </g>
            <rect opacity=".4" x="78.4" y="123.4" width="13.2" height="13.2" rx="1.6"/>
            <g clip-path="url(#5dduvj9xxf)" stroke-linecap="round" stroke-linejoin="round">
                <path d="M82.083 127.083a.416.416 0 0 1 .417-.416h5a.417.417 0 0 1 .417.416v5.834a.416.416 0 0 1-.417.416h-5a.416.416 0 0 1-.417-.416v-5.834z"/>
                <path d="m84.167 129.167.833-.834.833.834M84.167 130.833l.833.834.833-.834"/>
            </g>
            <rect opacity=".4" x="203.4" y="229.4" width="13.2" height="13.2" rx="1.6"/>
            <g clip-path="url(#5j4tet4tkg)" stroke-linecap="round" stroke-linejoin="round">
                <path d="M207.083 233.083a.416.416 0 0 1 .417-.416h5a.416.416 0 0 1 .417.416v5.834a.416.416 0 0 1-.417.416h-5a.416.416 0 0 1-.417-.416v-5.834z"/>
                <path d="m209.167 235.167.833-.834.833.834M209.167 236.833l.833.834.833-.834"/>
            </g>
            <rect opacity=".4" x="223.4" y="229.4" width="13.2" height="13.2" rx="1.6"/>
            <g clip-path="url(#79wc2an93h)" stroke-linecap="round" stroke-linejoin="round">
                <path d="M227.083 233.083a.416.416 0 0 1 .417-.416h5a.416.416 0 0 1 .417.416v5.834a.416.416 0 0 1-.417.416h-5a.416.416 0 0 1-.417-.416v-5.834z"/>
                <path d="m229.167 235.167.833-.834.833.834M229.167 236.833l.833.834.833-.834"/>
            </g>
            <rect opacity=".4" x="22.4" y="107.4" width="13.2" height="13.2" rx="1.6"/>
            <g clip-path="url(#q6auxblz1i)" stroke-linecap="round" stroke-linejoin="round">
                <path d="M29.417 114v.004M25.25 117.75h7.5M26.083 117.75v-6.667a.832.832 0 0 1 .834-.833h2.5m1.666 4.375v3.125M32.75 111.917h-2.917m0 0 1.25-1.25m-1.25 1.25 1.25 1.25"/>
            </g>
            <rect opacity=".4" x="78.4" y="138.4" width="13.2" height="13.2" rx="1.6"/>
            <g clip-path="url(#epdfrxe8cj)" stroke-linecap="round" stroke-linejoin="round">
                <path d="M85.417 145v.004M81.25 148.75h7.5M82.083 148.75v-6.667a.832.832 0 0 1 .834-.833h2.5m1.666 4.375v3.125M88.75 142.917h-2.917m0 0 1.25-1.25m-1.25 1.25 1.25 1.25"/>
            </g>
            <rect opacity=".4" x="218.4" y="369.4" width="13.2" height="13.2" rx="1.6"/>
            <g clip-path="url(#05atihctkk)" stroke-linecap="round" stroke-linejoin="round">
                <path d="M222.083 373.083c0 .221.088.433.244.59a.837.837 0 0 0 1.179 0 .837.837 0 0 0 0-1.179.833.833 0 0 0-1.423.589zM222.083 380.167v-2.084l-.416-.416V376a.417.417 0 0 1 .416-.417h1.667a.417.417 0 0 1 .417.417v1.667l-.417.416v2.084M226.25 373.083a.833.833 0 1 0 1.666.001.833.833 0 0 0-1.666-.001zM226.25 380.167V378.5h-.833l.833-2.5a.417.417 0 0 1 .417-.417h.833a.417.417 0 0 1 .417.417l.833 2.5h-.833v1.667"/>
            </g>
            <rect opacity=".4" x="142.4" y="358.4" width="13.2" height="13.2" rx="1.6"/>
            <rect opacity=".4" x="160.4" y="358.4" width="13.2" height="13.2" rx="1.6"/>
            <path d="M170 362.5h-1.5v1.667H167v1.666h-1.5v1.667H164" stroke-linecap="round" stroke-linejoin="round"/>
            <g clip-path="url(#w8vr05ccal)" stroke-linecap="round" stroke-linejoin="round">
                <path d="M146.083 362.083a.416.416 0 0 1 .417-.416h5a.416.416 0 0 1 .417.416v5.834a.416.416 0 0 1-.417.416h-5a.416.416 0 0 1-.417-.416v-5.834z"/>
                <path d="m148.167 364.167.833-.834.833.834M148.167 365.833l.833.834.833-.834"/>
            </g>
            <rect opacity=".4" x="142.4" y="376.4" width="13.2" height="13.2" rx="1.6"/>
            <g clip-path="url(#96972mpedm)" stroke-linecap="round" stroke-linejoin="round">
                <path d="M149.417 383v.004M145.25 386.75h7.5M146.083 386.75v-6.667a.833.833 0 0 1 .834-.833h2.5m1.666 4.375v3.125M152.75 380.917h-2.917m0 0 1.25-1.25m-1.25 1.25 1.25 1.25"/>
            </g>
            <rect opacity=".4" x="160.4" y="376.4" width="13.2" height="13.2" rx="1.6"/>
            <g clip-path="url(#u1bpaj5nzn)" stroke-linecap="round" stroke-linejoin="round">
                <path d="M167.417 383v.004M163.25 386.75h7.5M164.083 386.75v-6.667a.833.833 0 0 1 .834-.833h2.5m1.666 4.375v3.125M170.75 380.917h-2.917m0 0 1.25-1.25m-1.25 1.25 1.25 1.25"/>
            </g>
        </g>
        <path opacity=".7" d="M65.689 57.996c-.007.814.991 1.58 2.194 1.736l-.253.534c-1.001-.161-1.883-.68-2.276-1.402-.403.725-1.282 1.241-2.276 1.402l-.26-.534c1.203-.157 2.187-.916 2.194-1.736v-.335h.677v.335zm2.447 2.871v.533h-2.488v2.181h-.636v-2.18h-2.46v-.534h5.584zm2.639-2.495c0 .861.554 1.627 1.483 1.928l-.355.506a2.429 2.429 0 0 1-1.436-1.326 2.54 2.54 0 0 1-1.538 1.51l-.348-.52c.977-.334 1.544-1.148 1.551-2.07v-.602h.643v.574zm2.932-.916v3.616h-.649v-1.839h-1.292V58.7h1.292v-1.244h.65zm-2.05 3.787c1.285 0 2.071.424 2.071 1.17 0 .737-.786 1.161-2.071 1.154-1.285.007-2.078-.417-2.072-1.155-.006-.745.787-1.169 2.072-1.169zm0 .506c-.896 0-1.429.24-1.429.663 0 .41.533.643 1.429.643.895 0 1.428-.233 1.428-.643 0-.424-.533-.663-1.428-.663zm4.45-3.821c.735 0 1.292.495 1.394 1.25h.568v-1.613h.608v4.287h-.608v-2.133h-.574c-.117.728-.667 1.216-1.388 1.21-.82.006-1.408-.616-1.401-1.497-.007-.896.58-1.504 1.4-1.504zm0 .553c-.479 0-.82.383-.82.95 0 .568.341.944.82.944.472 0 .82-.376.827-.943-.007-.568-.355-.95-.827-.95zm3.767-1.025v4.58h-.616v-4.58h.616zm.177 5.469v.526h-4.238v-2.01h.643v1.484h3.595zm2.906-3.664c0 1.025.67 2.085 1.613 2.488l-.356.506c-.72-.318-1.295-.991-1.579-1.812-.283.875-.861 1.62-1.572 1.97l-.376-.514c.923-.43 1.606-1.586 1.613-2.638v-.65H80.9v-.54h3.452v.54h-1.394v.65zm2.816-1.805v6.125h-.65v-6.125h.65zm6.063 0v6.125h-.649v-6.125h.65zm-4.067.595v3.41a14.47 14.47 0 0 0 2.816-.28l.09.547a15.072 15.072 0 0 1-3.036.294h-.513v-3.971h.643zm6.692-.137c.831 0 1.44.704 1.538 1.839h1.265v-2.297h.643v6.139h-.643v-3.316h-1.258c-.071 1.193-.694 1.935-1.545 1.935-.916 0-1.558-.834-1.551-2.154-.007-1.312.635-2.146 1.551-2.146zm0 .581c-.553 0-.936.602-.936 1.566 0 .97.383 1.572.936 1.572.554 0 .937-.602.937-1.573 0-.963-.383-1.565-.937-1.565zm9.468-1.032v3.753h-.649v-3.753h.649zm-1.955.376v1.736h-2.167v.766c1.07-.01 1.86-.041 2.789-.185l.082.527c-.998.164-1.839.191-2.994.191h-.513v-1.798h2.161v-.704h-2.174v-.533h2.816zm-.089 3.493c1.292 0 2.085.403 2.085 1.121 0 .704-.793 1.121-2.085 1.114-1.299.007-2.085-.41-2.085-1.114 0-.718.786-1.121 2.085-1.121zm0 .513c-.909 0-1.442.218-1.442.608s.533.602 1.442.602c.909 0 1.436-.212 1.436-.602s-.527-.608-1.436-.608z" fill="#fff"/>
        <rect opacity=".2" x="68.686" y="40" width="31" height="12" rx="6" fill="#000"/>
        <path d="m75.702 49 2.453-4.766v-.039h-2.844v-.851h3.899v.867L76.757 49h-1.055zm6.625-5.656V49h-1.023v-4.664h-.032l-1.32.844v-.93l1.399-.906h.976zM83.913 49l2.453-4.766v-.039h-2.844v-.851h3.899v.867L84.968 49h-1.055zm10.219-5.422v.703h-5.836v-.703h2.492v-.851h.86v.851h2.484zm.328 4.656v.703h-6.453v-.703h2.781v-.867c-1.223-.097-1.96-.586-1.953-1.367-.008-.852.906-1.36 2.383-1.36 1.453 0 2.375.508 2.375 1.36 0 .777-.742 1.266-1.946 1.36v.874h2.813zm-3.242-2.914c-.961.008-1.5.235-1.492.68-.008.453.53.68 1.492.688.945-.008 1.484-.235 1.484-.688 0-.445-.539-.672-1.484-.68z" fill="#fff"/>
        <path opacity=".7" d="M23.15 166.456v3.664h-.616v-3.664h.615zm-1.197.116v3.5h-.608v-1.497h-.575c-.109.725-.663 1.196-1.387 1.196-.82 0-1.408-.594-1.402-1.469-.006-.862.581-1.47 1.402-1.47.731 0 1.285.492 1.394 1.217h.568v-1.477h.608zm1.196 3.822v2.194h-.642v-1.675h-3.52v-.519h4.162zm-3.766-3.001c-.479 0-.82.369-.82.909 0 .553.341.929.82.923.472.006.82-.37.827-.923-.007-.54-.355-.909-.827-.909zm6.72.622c-.007 1.087.622 2.194 1.538 2.638l-.404.52c-.666-.345-1.182-1.032-1.449-1.853-.277.875-.813 1.607-1.51 1.969l-.404-.526c.943-.451 1.58-1.627 1.58-2.748v-1.046h.648v1.046zm2.645-1.559v2.44h.984v.554h-.984v3.131h-.65v-6.125h.65zm6.884 4.847v.547h-5.606v-.547h2.468v-1.074H30.71v-1.948h3.596v-.861h-3.61v-.533h4.252v1.914h-3.596v.895h3.74v.533h-1.955v1.074h2.495zm6.05-.021v.54h-5.606v-.54h2.468v-1.258h-1.825v-3.151h.65v1.053h3.007v-1.053h.643v3.151h-1.832v1.258h2.495zm-4.314-1.784h3.008v-1.046h-3.008v1.046zm9.837.964v2.119h-.65v-1.593h-3.5v-.526h4.15zm0-4.006v3.732h-.65v-3.732h.65zm-1.784.41v.527h-2.29v.704h2.119v.506h-2.12v.738c1.228-.004 1.942-.034 2.77-.164l.068.519c-.889.144-1.648.171-2.988.164h-.505v-2.994h2.946zm5.865.458c0 .998 1.066 1.942 2.242 2.154l-.3.54c-.978-.212-1.88-.855-2.277-1.716-.403.854-1.302 1.497-2.283 1.716l-.287-.54c1.162-.219 2.221-1.156 2.221-2.154v-.465h.684v.465zm2.495 3.91v.54h-5.605v-.54h5.605z" fill="#fff"/>
        <rect opacity=".2" x="20" y="149" width="31" height="12" rx="6" fill="#000"/>
        <path d="m26.492 158 2.453-4.766v-.039h-2.843v-.851H30v.867L27.547 158h-1.055zm6.625-5.656V158h-1.023v-4.664h-.032l-1.32.844v-.93l1.399-.906h.976zm3.492 5.734c-1.101-.008-2.21-.664-2.203-2.75 0-1.937.883-3.062 2.266-3.062 1.094 0 1.844.687 1.969 1.601h-1.008c-.102-.429-.446-.719-.961-.719-.82 0-1.281.727-1.281 1.914h.054c.29-.484.836-.773 1.453-.773 1.016 0 1.797.766 1.797 1.836 0 1.125-.836 1.961-2.086 1.953zm0-.82c.633 0 1.102-.492 1.102-1.11a1.07 1.07 0 0 0-1.086-1.086c-.633 0-1.117.5-1.125 1.094a1.102 1.102 0 0 0 1.11 1.102zm8.836-4.68v.703H39.61v-.703h2.493v-.851h.859v.851h2.484zm.328 4.656v.704H39.32v-.704h2.782v-.867c-1.223-.097-1.961-.586-1.954-1.367-.007-.852.907-1.359 2.383-1.359 1.453 0 2.375.507 2.375 1.359 0 .777-.742 1.266-1.945 1.359v.875h2.812zm-3.242-2.914c-.96.008-1.5.235-1.492.68-.008.453.531.68 1.492.688.946-.008 1.485-.235 1.485-.688 0-.445-.54-.672-1.485-.68z" fill="#fff"/>
        <path opacity=".7" d="M105.358 143.465h.728v2.466c0 .688-.483 1.118-1.196 1.118-.64 0-1.143-.337-1.138-1.035h.732c.005.278.176.444.44.444.278 0 .434-.181.434-.527v-2.466zm3.243 1.011c-.03-.279-.254-.445-.611-.445-.371 0-.576.171-.581.406-.005.253.264.371.567.439l.317.078c.605.137 1.06.444 1.06 1.035 0 .65-.508 1.06-1.368 1.06-.854 0-1.401-.396-1.421-1.153h.713c.025.357.308.538.699.538.385 0 .634-.181.634-.445 0-.239-.219-.351-.605-.449l-.386-.093c-.596-.146-.962-.444-.962-.962 0-.644.567-1.069 1.338-1.069.781 0 1.299.435 1.309 1.06h-.703zm5.117.522v.503h-.899v.537c.266.137.413.339.415.601-.005.522-.586.815-1.547.815-.977 0-1.558-.293-1.558-.815 0-.271.156-.479.444-.62v-.518h-.908v-.503h4.053zm-2.031.83c.183 0 .354.01.507.029v-.356h-1.001v.356a3.97 3.97 0 0 1 .494-.029zm0 .469c-.616.005-.928.112-.923.342-.005.234.307.341.923.341.6 0 .917-.107.922-.341-.005-.23-.322-.337-.922-.342zm.004-3.223c.982 0 1.612.327 1.617.864-.005.528-.635.845-1.617.845-.991 0-1.621-.317-1.621-.845 0-.537.63-.864 1.621-.864zm0 .484c-.62 0-.976.127-.971.38-.005.245.351.372.971.372.616 0 .972-.127.972-.372 0-.253-.356-.38-.972-.38zm5.821-.552v1.069h.6v.518h-.6v1.015h-.625v-2.602h.625zm-2.29 2.773v.337h1.665v-.337h.625v1.621h-2.91v-1.621h.62zm0 1.133h1.665v-.317h-1.665v.317zm1.401-3.516v.489h-2.637v-.489h1.011v-.419h.62v.419h1.006zm-1.318.616c.644 0 1.093.312 1.093.786 0 .473-.449.786-1.093.786-.655 0-1.104-.313-1.104-.786 0-.474.449-.786 1.104-.786zm0 .459c-.298-.005-.498.117-.493.327-.005.215.195.332.493.332s.503-.117.503-.332c0-.21-.205-.332-.503-.327zm6.723-1.46v3.193h-.625v-3.193h.625zm.118 3.862v.498h-3.096v-1.489h.63v.991h2.466zm-2.554-3.579c.683 0 1.216.469 1.216 1.118 0 .664-.533 1.128-1.216 1.128-.684 0-1.216-.464-1.216-1.128 0-.649.532-1.118 1.216-1.118zm0 .542c-.347-.005-.611.215-.606.576-.005.371.259.586.606.586.337 0 .6-.215.6-.586 0-.361-.263-.581-.6-.576zm6.914-.83v4.443h-.596v-2.226h-.376v2.021h-.591v-1.274l-.351.468c-.413-.217-.679-.585-.835-1.044-.149.527-.413.954-.835 1.206l-.386-.479c.674-.381.903-1.167.903-2.017v-.141h-.751v-.498h2.036v.498h-.679v.141c0 .774.229 1.512.898 1.856v-2.891h.591v1.646h.376v-1.709h.596zm4.131.386v.434c-.005.542-.005 1.153-.166 2.046l-.611-.054c.147-.813.152-1.418.152-1.933h-2.661v-.493h3.286zm.366 3.007v.508h-4.053v-.508h.864v-1.396h.621v1.396h.488v-1.396h.615v1.396h1.465zm4.321-1.318v.493h-.976v.415h.483v1.46h-.62v-.971h-2.49v-.489h.508v-.415h-.958v-.493h4.053zm-2.026-1.987c.976-.005 1.611.332 1.616.874-.005.542-.64.879-1.616.879-.982 0-1.621-.337-1.621-.879s.639-.879 1.621-.874zm0 .483c-.62 0-.977.137-.972.391-.005.263.352.395.972.395.615 0 .972-.132.972-.395 0-.254-.357-.391-.972-.391zm-.44 2.412h.874v-.415h-.874v.415zm6.499-2.978v3.354h-.625v-.351h-.849v-.425h.849v-2.578h.625zm.098 3.862v.498h-3.31v-1.328h.62v-.591c-.398.017-.777.02-1.114.02l-.073-.493c.816-.005 1.914-.015 2.852-.132l.034.444c-.352.059-.715.1-1.074.127v.845h-.625v.61h2.69zm-2.432-3.711c.645-.005 1.109.322 1.109.796 0 .474-.464.781-1.109.781-.659 0-1.118-.307-1.118-.781 0-.474.454-.801 1.118-.796zm0 .454c-.317 0-.532.122-.527.342-.005.215.21.332.527.332.298 0 .513-.117.518-.332-.005-.22-.22-.342-.518-.342zm3.15 2.036c0-.918.283-1.679.752-2.339h.688c-.337.489-.688 1.465-.688 2.339 0 .879.351 1.856.688 2.344h-.688a3.937 3.937 0 0 1-.752-2.344zm5.742-.195v.498h-1.728v1.494h-.616v-1.494h-1.709v-.498h4.053zm-.361-2.217v.489h-1.294c.061.434.552.871 1.465.981l-.225.488c-.781-.105-1.34-.439-1.606-.898-.274.459-.828.793-1.602.898l-.23-.488c.899-.11 1.395-.547 1.465-.981h-1.298v-.489h3.325zm2.055 2.412c0 .918-.283 1.685-.752 2.344h-.688c.337-.488.688-1.465.688-2.344 0-.874-.351-1.85-.688-2.339h.688c.469.66.752 1.421.752 2.339z" fill="#fff"/>
        <rect opacity=".2" x="109" y="128" width="31" height="12" rx="6" fill="#000"/>
        <path d="m115.492 137 2.453-4.766v-.039h-2.843v-.851H119v.867L116.547 137h-1.055zm6.625-5.656V137h-1.023v-4.664h-.032l-1.32.844v-.93l1.399-.906h.976zm3.383-.078c1.109.007 2.203.664 2.211 2.734 0 1.953-.883 3.078-2.273 3.078-1.094 0-1.844-.68-1.969-1.617h1.008c.101.445.445.734.961.734.82 0 1.281-.726 1.289-1.937h-.063c-.289.492-.828.781-1.453.781-1.008 0-1.789-.766-1.797-1.836 0-1.109.828-1.945 2.086-1.937zm.008.82a1.08 1.08 0 0 0-1.102 1.094 1.06 1.06 0 0 0 1.086 1.086c.625 0 1.117-.508 1.11-1.094 0-.578-.461-1.086-1.094-1.086zm8.937-.508v.703h-5.836v-.703h2.493v-.851h.859v.851h2.484zm.328 4.656v.704h-6.453v-.704h2.782v-.867c-1.223-.097-1.961-.586-1.954-1.367-.007-.852.907-1.359 2.383-1.359 1.453 0 2.375.507 2.375 1.359 0 .777-.742 1.266-1.945 1.359v.875h2.812zm-3.242-2.914c-.961.008-1.5.235-1.492.68-.008.453.531.68 1.492.688.946-.008 1.485-.235 1.485-.688 0-.445-.539-.672-1.485-.68z" fill="#fff"/>
        <path opacity=".7" d="M97.001 194v-4.949h.752v2.146h2.461v-2.146h.752V194h-.752v-2.16h-2.46V194H97zm6.583 0h-1.606v-4.949h1.654c1.456 0 2.331.929 2.331 2.468 0 1.544-.875 2.481-2.379 2.481zm-.854-.656h.813c1.122 0 1.675-.656 1.675-1.825 0-1.163-.553-1.812-1.634-1.812h-.854v3.637zm8.88-4.881v4.45h-.65v-4.45h.65zm.184 5.462v.526h-4.19v-1.989h.656v1.463h3.534zm-3.506-5.052c.922 0 1.627.629 1.627 1.518 0 .902-.705 1.524-1.627 1.524-.923 0-1.634-.622-1.634-1.524 0-.889.711-1.518 1.634-1.518zm0 .567c-.575 0-.998.39-.998.951 0 .574.423.957.998.957.56 0 .991-.383.991-.957 0-.561-.431-.951-.991-.951zm5.113-.396v1.47h1.176v-1.47h.594v1.709h.814v-2.174h.622v5.708h-.622v-2.994h-.814v1.777h-2.385v-4.026h.615zm0 3.486h1.176v-1.49h-1.176v1.49zm4.45-4.074v6.125h-.622v-6.125h.622zm3.89.868c0 .998 1.066 1.942 2.242 2.154l-.301.54c-.977-.212-1.88-.855-2.276-1.716-.404.854-1.302 1.497-2.283 1.716l-.288-.54c1.163-.219 2.222-1.156 2.222-2.154v-.465h.684v.465zm2.495 3.91v.54h-5.606v-.54h5.606zm5.414-1.517v.519h-4.266v-3.274h4.204v.526h-3.547v.827h3.417v.513h-3.417v.889h3.609zm.636 1.558v.534h-5.606v-.534h5.606z" fill="#fff"/>
        <rect opacity=".2" x="98" y="174" width="31" height="12" rx="6" fill="#000"/>
        <path d="m104.617 183 2.453-4.766v-.039h-2.843v-.851h3.898v.867L105.672 183h-1.055zm6.625-5.656V183h-1.023v-4.664h-.031l-1.321.844v-.93l1.399-.906h.976zm3.383 5.734c-1.133 0-1.961-.672-1.992-1.609h.992c.031.461.461.789 1 .789.633 0 1.086-.461 1.086-1.086 0-.649-.469-1.11-1.117-1.11-.438-.007-.758.149-.938.485h-.945l.344-3.203h3.343v.851h-2.507l-.172 1.5h.054c.219-.25.633-.429 1.094-.429 1.055 0 1.828.789 1.828 1.875 0 1.132-.851 1.937-2.07 1.937zm8.82-5.5v.703h-5.836v-.703h2.493v-.851h.859v.851h2.484zm.328 4.656v.704h-6.453v-.704h2.782v-.867c-1.223-.097-1.961-.586-1.954-1.367-.007-.852.907-1.359 2.383-1.359 1.453 0 2.375.507 2.375 1.359 0 .777-.742 1.266-1.945 1.359v.875h2.812zm-3.242-2.914c-.961.008-1.5.235-1.492.68-.008.453.531.68 1.492.688.946-.008 1.485-.235 1.485-.688 0-.445-.539-.672-1.485-.68z" fill="#fff"/>
        <path opacity=".7" d="M63.653 254.463v4.484h-.65v-4.484h.65zm.185 5.462v.526h-4.19v-1.928h.656v1.402h3.534zm-3.035-4.519c-.007.896.567 1.716 1.51 2.044l-.335.52a2.569 2.569 0 0 1-1.503-1.449c-.27.71-.8 1.281-1.518 1.558l-.349-.513a2.304 2.304 0 0 0 1.532-2.16v-.608h.663v.608zm5.516-.594c.51-.004.944.188 1.23.505h1.532v-.861h.65v3.616h-.65v-.827h-1.538c-.284.315-.718.503-1.224.499-.922.007-1.606-.608-1.606-1.463 0-.861.684-1.476 1.606-1.469zm0 .56c-.574-.007-.984.362-.984.909 0 .533.41.916.984.909.56.007.971-.376.971-.909 0-.547-.41-.916-.97-.909zm1.36 2.837c1.272 0 2.072.431 2.072 1.183 0 .745-.8 1.182-2.071 1.175-1.279.007-2.078-.43-2.072-1.175-.006-.752.793-1.183 2.072-1.183zm0 .499c-.895 0-1.442.246-1.435.684-.007.423.54.663 1.436.663.902 0 1.435-.24 1.435-.663 0-.438-.533-.684-1.435-.684zm.165-2.871c.044.137.068.287.068.444 0 .151-.024.298-.061.431h1.23v-.875h-1.237zm7.902-1.381v6.139h-.65v-6.139h.65zm-4.081.513v1.572h1.647v-1.572h.643v4.156h-2.94v-4.156h.65zm0 3.623h1.647v-1.538h-1.647v1.538zm10.281-4.129v3.541h-.615v-3.541h.615zm-1.196.116v3.35h-.608v-1.415h-.575c-.106.711-.66 1.175-1.387 1.169-.82.006-1.409-.575-1.402-1.429-.007-.841.581-1.422 1.402-1.429.72.007 1.268.462 1.387 1.149h.575v-1.395h.608zm1.196 3.705v2.222h-4.094v-2.222h4.094zm-3.445.513v1.182h2.81v-1.182H78.5zm-.321-3.439c-.479 0-.82.363-.82.896s.341.895.82.902c.471-.007.82-.369.827-.902-.007-.533-.356-.896-.827-.896zm9.666-.902v6.139h-.65v-6.139h.65zm-3.275.458c.91 0 1.58.834 1.58 2.147 0 1.319-.67 2.153-1.58 2.153-.923 0-1.586-.834-1.586-2.153 0-1.313.663-2.147 1.586-2.147zm0 .581c-.567 0-.957.602-.957 1.566 0 .97.39 1.572.957 1.572.56 0 .95-.602.95-1.572 0-.964-.39-1.566-.95-1.566zm4.621 2.618c.007-1.285.37-2.358 1.012-3.274h.67c-.472.677-.923 2.057-.923 3.274 0 1.224.451 2.598.923 3.282h-.67c-.642-.916-1.005-1.99-1.012-3.282zm7.718-.205v.527h-2.488v2.139h-.636v-2.139h-2.46v-.527h5.584zm-.526-3.09v.52H94.49c.01.759.954 1.435 2.113 1.593l-.24.512c-1.005-.157-1.873-.652-2.242-1.353-.38.701-1.244 1.196-2.235 1.353l-.246-.512c1.145-.158 2.088-.834 2.112-1.593h-1.907v-.52h4.539zm2.673 3.295c-.007 1.292-.37 2.366-1.012 3.282h-.67c.472-.684.923-2.058.923-3.282 0-1.217-.451-2.597-.923-3.274h.67c.642.916 1.005 1.989 1.012 3.274z" fill="#fff"/>
        <rect opacity=".2" x="63" y="237" width="31" height="12" rx="6" fill="#000"/>
        <path d="m69.5 246 2.453-4.766v-.039H69.11v-.851h3.899v.867L70.555 246H69.5zm6.625-5.656V246h-1.023v-4.664h-.032l-1.32.844v-.93l1.398-.906h.977zm3.43 5.734c-1.211 0-2.07-.656-2.094-1.609h1.023c.032.453.485.75 1.07.75.626 0 1.071-.344 1.071-.844 0-.508-.438-.875-1.172-.875h-.508v-.781h.508c.602 0 1.024-.336 1.016-.828.008-.477-.352-.797-.906-.797-.532 0-.993.297-1.008.773h-.977c.024-.953.883-1.601 1.992-1.601 1.149 0 1.89.703 1.883 1.57.008.633-.414 1.094-1.031 1.219v.047c.797.109 1.25.617 1.242 1.328.008.953-.883 1.648-2.11 1.648zm8.89-5.5v.703H82.61v-.703h2.493v-.851h.859v.851h2.484zm.328 4.656v.704H82.32v-.704h2.782v-.867c-1.223-.097-1.961-.586-1.954-1.367-.007-.852.907-1.359 2.383-1.359 1.453 0 2.375.507 2.375 1.359 0 .777-.742 1.266-1.945 1.359v.875h2.812zm-3.242-2.914c-.96.008-1.5.235-1.492.68-.008.453.531.68 1.492.688.946-.008 1.485-.235 1.485-.688 0-.445-.54-.672-1.485-.68z" fill="#fff"/>
        <path opacity=".7" d="M63.993 337.113c.007-1.285.37-2.358 1.012-3.274h.67c-.472.677-.923 2.057-.923 3.274 0 1.224.451 2.598.923 3.282h-.67c-.643-.916-1.005-1.99-1.012-3.282zm7.718-.205v.527h-2.488v2.139h-.636v-2.139h-2.461v-.527h5.585zm-.526-3.09v.52H69.29c.01.759.954 1.435 2.112 1.593l-.239.512c-1.005-.157-1.873-.652-2.242-1.353-.38.701-1.244 1.196-2.236 1.353l-.246-.512c1.145-.158 2.089-.834 2.113-1.593h-1.907v-.52h4.539zm2.672 3.295c-.006 1.292-.369 2.366-1.011 3.282h-.67c.471-.684.923-2.058.923-3.282 0-1.217-.452-2.597-.923-3.274h.67c.642.916 1.005 1.989 1.011 3.274zm6.043-3.65v3.172h-.615v-3.172h.615zm-1.196.116v3.015h-.608v-1.251h-.575c-.109.659-.656 1.1-1.387 1.1-.82 0-1.408-.553-1.402-1.346-.006-.821.582-1.354 1.402-1.347.721-.007 1.261.403 1.388 1.06h.574v-1.231h.608zm1.196 3.316v1.51h-3.445v.581h3.678v.52h-4.327v-1.586h3.452v-.513h-3.466v-.512H79.9zm-3.766-2.646c-.479 0-.82.349-.82.848 0 .492.341.827.82.827.472 0 .82-.335.827-.827-.007-.499-.355-.848-.827-.848zm9.816 3.309v2.023h-.642v-1.504h-3.514v-.519h4.156zm-2.782-3.637v1.75H81.63v.813c.752-.006 1.316-.041 1.99-.177l.067.526c-.758.144-1.387.178-2.283.171h-.403v-1.812h1.545v-.758h-1.559v-.513h2.181zm2.782-.458v3.808h-.615v-3.808h.615zm-1.223.116v3.657h-.623v-1.715H83.4v-.527h.704v-1.415h.623zm4.3 1.436c-.008 1.121.67 2.242 1.62 2.666l-.39.512c-.704-.335-1.261-1.022-1.545-1.859-.287.895-.851 1.637-1.586 1.996l-.397-.547c.964-.43 1.641-1.599 1.641-2.768v-1.046h.656v1.046zm2.823-1.559v6.139h-.65v-6.139h.65z" fill="#fff"/>
        <rect opacity=".2" x="63" y="316" width="31" height="12" rx="6" fill="#000"/>
        <path d="m69.734 325 2.454-4.766v-.039h-2.844v-.851h3.898v.867L70.79 325h-1.055zm6.625-5.656V325h-1.023v-4.664h-.031l-1.32.844v-.93l1.398-.906h.976zM77.734 325v-.734l2-1.93c.57-.57.868-.906.868-1.383 0-.523-.415-.859-.97-.859-.585 0-.96.367-.952.937h-.97c-.007-1.07.798-1.765 1.93-1.765 1.157 0 1.938.687 1.938 1.64 0 .641-.312 1.156-1.422 2.203l-1.008 1v.039h2.516V325h-3.93zm10.711-5.422v.703H82.61v-.703h2.493v-.851h.859v.851h2.484zm.328 4.656v.704H82.32v-.704h2.782v-.867c-1.223-.097-1.961-.586-1.954-1.367-.007-.852.907-1.359 2.383-1.359 1.453 0 2.375.507 2.375 1.359 0 .777-.742 1.266-1.945 1.359v.875h2.812zm-3.242-2.914c-.96.008-1.5.235-1.492.68-.008.453.531.68 1.492.688.946-.008 1.485-.235 1.485-.688 0-.445-.54-.672-1.485-.68z" fill="#fff"/>
        <path opacity=".7" d="M50.358 413h-1.606v-4.949h1.654c1.456 0 2.33.929 2.33 2.468 0 1.544-.874 2.481-2.378 2.481zm-.855-.656h.814c1.121 0 1.675-.656 1.675-1.825 0-1.163-.554-1.812-1.634-1.812h-.855v3.637zm3.85-.39c0-.848.717-1.066 1.387-1.114.246-.017.803-.048.977-.055l-.007-.294c0-.417-.252-.663-.752-.663-.43 0-.69.198-.765.472h-.725c.069-.615.643-1.06 1.518-1.06.588 0 1.456.219 1.456 1.292V413h-.711v-.506h-.027c-.144.28-.486.588-1.101.588-.704 0-1.25-.403-1.25-1.128zm.71.007c0 .355.294.54.704.54.595 0 .95-.397.95-.841v-.342c-.17.014-.704.052-.875.062-.478.034-.779.212-.779.581zm3.26 1.039v-3.712h.732V413h-.731zm.37-4.286c-.253 0-.465-.192-.465-.431s.212-.43.465-.43c.246 0 .458.191.458.43s-.212.431-.458.431zm1.982-.663V413h-.731v-4.949h.731zm1.34 6.344a2.97 2.97 0 0 1-.39-.021v-.608c.083.006.226.013.329.013.225 0 .417-.02.587-.485l.09-.246-1.361-3.76h.78l.936 2.878h.04l.937-2.878h.786l-1.53 4.204c-.213.588-.596.903-1.204.903zm5.537-6.344 1.374 4.026h.055l1.374-4.026h.813L68.384 413h-.868l-1.777-4.949h.813zm5.407 5.024c-1.093 0-1.763-.752-1.763-1.907 0-1.142.683-1.928 1.716-1.928.847 0 1.647.527 1.647 1.866v.26H70.92c.02.704.434 1.108 1.046 1.108.417 0 .684-.178.807-.404h.738c-.164.602-.738 1.005-1.551 1.005zm-1.032-2.256h1.914c0-.567-.362-.977-.922-.977-.585 0-.964.451-.992.977zm4.915 3.651c-.936 0-1.552-.417-1.62-1.108h.745c.069.349.397.52.882.52.581 0 .95-.246.95-.827v-.732h-.048c-.13.239-.396.622-1.08.622-.875 0-1.551-.656-1.551-1.839 0-1.182.663-1.866 1.558-1.866.69 0 .944.417 1.08.65h.048v-.602h.711v3.794c0 .95-.718 1.388-1.675 1.388zm-.007-2.126c.623 0 .971-.458.971-1.224 0-.752-.342-1.258-.97-1.258-.65 0-.971.547-.971 1.258 0 .725.335 1.224.97 1.224zm2.4-.39c0-.848.718-1.066 1.388-1.114.246-.017.803-.048.977-.055l-.007-.294c0-.417-.253-.663-.752-.663-.43 0-.69.198-.765.472h-.725c.068-.615.643-1.06 1.518-1.06.588 0 1.456.219 1.456 1.292V413h-.711v-.506h-.028c-.143.28-.485.588-1.1.588-.704 0-1.251-.403-1.251-1.128zm.71.007c0 .355.295.54.705.54.595 0 .95-.397.95-.841v-.342c-.17.014-.704.052-.875.062-.478.034-.78.212-.78.581zm3.993-1.162V413h-.731v-3.712h.704v.608h.04c.178-.396.54-.656 1.094-.656.766 0 1.265.479 1.265 1.402V413h-.725v-2.27c0-.54-.293-.861-.786-.861-.499 0-.861.335-.861.93z" fill="#fff"/>
        <rect opacity=".2" x="51" y="390" width="31" height="12" rx="6" fill="#000"/>
        <path d="m57.883 399 2.453-4.766v-.039h-2.844v-.851h3.899v.867L58.938 399h-1.055zm6.625-5.656V399h-1.024v-4.664h-.03l-1.321.844v-.93l1.398-.906h.977zm3.672 0V399h-1.024v-4.664h-.031l-1.32.844v-.93l1.398-.906h.977zm7.265.234v.703H69.61v-.703h2.493v-.851h.859v.851h2.484zm.328 4.656v.704H69.32v-.704h2.782v-.867c-1.223-.097-1.961-.586-1.954-1.367-.007-.852.907-1.359 2.383-1.359 1.453 0 2.375.507 2.375 1.359 0 .777-.742 1.266-1.945 1.359v.875h2.812zm-3.242-2.914c-.96.008-1.5.235-1.492.68-.008.453.531.68 1.492.688.946-.008 1.485-.235 1.485-.688 0-.445-.54-.672-1.485-.68z" fill="#fff"/>
        <path opacity=".7" d="M186.548 63h-1.607v-4.95h1.655c1.456 0 2.331.93 2.331 2.469 0 1.544-.875 2.481-2.379 2.481zm-.855-.656h.814c1.121 0 1.675-.657 1.675-1.825 0-1.163-.554-1.812-1.634-1.812h-.855v3.637zm4.963-4.286-.547 1.886h-.581l.363-1.886h.765zm.766 4.942v-4.95h.752v4.3h2.235V63h-2.987zm4.512-4.95V63h-.752v-4.95h.752zm1.442 0 1.374 4.027h.055l1.374-4.026h.813L199.208 63h-.868l-1.778-4.95h.814zm4.245 4.95v-4.95h3.104v.65h-2.352v1.497h2.188v.643h-2.188v1.51h2.379V63h-3.131zm7.588-3.74c0 .971.636 2.052 1.565 2.489l-.369.506c-.687-.332-1.23-1.022-1.504-1.825-.283.878-.858 1.633-1.558 1.982l-.383-.513c.93-.444 1.606-1.6 1.606-2.638v-.65h-1.38v-.54h3.356v.54h-1.333v.65zm2.639-1.804v2.427h.984v.547h-.984v3.151h-.65v-6.125h.65zm6.569 0v6.125h-.622v-3.145h-.732v2.844h-.615v-5.708h.615v2.318h.732v-2.434h.622zm-3.432 1.62c0 1.1.417 2.099 1.306 2.557l-.383.499c-.601-.325-1.005-.896-1.223-1.607-.209.807-.616 1.45-1.238 1.819l-.403-.492c.895-.506 1.312-1.559 1.312-2.776v-.396h-1.148v-.527h2.844v.527h-1.067v.396zm9.263-1.62v3.151h-.643v-3.15h.643zm.007 3.445v1.532h-3.377V63h3.582v.52h-4.211v-1.58h3.363v-.526h-3.383v-.513h4.026zm-2.851-2.81c-.007.821.588 1.566 1.525 1.86l-.322.506c-.714-.232-1.251-.718-1.524-1.34a2.588 2.588 0 0 1-1.559 1.456l-.328-.513c.957-.32 1.545-1.12 1.545-1.968v-.472h.663v.472z" fill="#fff"/>
        <rect opacity=".2" x="189" y="40" width="31" height="12" rx="6" fill="#000"/>
        <path d="m195.508 49 2.453-4.766v-.039h-2.844v-.851h3.899v.867L196.562 49h-1.054zm6.625-5.656V49h-1.024v-4.664h-.031l-1.32.844v-.93l1.398-.906h.977zm3.429 5.734c-1.257 0-2.148-.672-2.148-1.594 0-.718.531-1.304 1.211-1.414v-.03c-.594-.126-1-.642-1-1.259 0-.875.82-1.515 1.937-1.515 1.11 0 1.93.64 1.93 1.515 0 .617-.414 1.133-1 1.258v.031c.68.11 1.219.696 1.219 1.414 0 .922-.899 1.594-2.149 1.594zm0-.805c.665 0 1.102-.359 1.102-.882 0-.532-.469-.922-1.102-.922-.64 0-1.109.39-1.101.922-.008.523.43.882 1.101.882zm0-2.562c.547 0 .938-.344.938-.836 0-.477-.383-.813-.938-.813-.562 0-.945.329-.945.813 0 .492.391.836.945.836zm8.883-2.133v.703h-5.836v-.703h2.493v-.851h.859v.851h2.484zm.328 4.656v.703h-6.453v-.703h2.782v-.867c-1.223-.097-1.961-.586-1.954-1.367-.007-.852.907-1.36 2.383-1.36 1.453 0 2.375.508 2.375 1.36 0 .777-.742 1.266-1.945 1.36v.874h2.812zm-3.242-2.914c-.961.008-1.5.235-1.492.68-.008.453.531.68 1.492.688.946-.008 1.485-.235 1.485-.688 0-.445-.539-.672-1.485-.68z" fill="#fff"/>
        <path opacity=".7" d="M274.33 72h-1.606v-4.95h1.654c1.456 0 2.331.93 2.331 2.469 0 1.544-.875 2.481-2.379 2.481zm-.854-.656h.813c1.121 0 1.675-.656 1.675-1.825 0-1.163-.554-1.812-1.634-1.812h-.854v3.637zm4.962-4.286-.546 1.886h-.581l.362-1.886h.765zm.766 4.942v-4.95h.752v4.3h2.235V72h-2.987zm4.512-4.95V72h-.752v-4.95h.752zm1.442 0 1.374 4.027h.055l1.374-4.026h.813L286.99 72h-.868l-1.777-4.95h.813zm4.245 4.95v-4.95h3.104v.65h-2.352v1.497h2.188v.643h-2.188v1.51h2.379V72h-3.131zm7.581-3.985c-.006 1.087.622 2.194 1.538 2.638l-.403.52c-.666-.345-1.182-1.032-1.449-1.853-.277.875-.814 1.607-1.511 1.97l-.403-.527c.943-.452 1.579-1.627 1.579-2.748v-1.046h.649v1.046zm2.646-1.559v2.44h.984v.554h-.984v3.131h-.65v-6.125h.65zm6.877 3.514v.526h-2.502v2.078h-.636v-2.078h-2.468v-.526h5.606zm-.704-3.186v2.406h-4.198v-2.406h4.198zm-3.562.52v1.38h2.912v-1.38h-2.912zm9.789-.848v3.151h-.642v-3.15h.642zm.007 3.445v1.532h-3.377V72h3.582v.52h-4.211v-1.58h3.364v-.526h-3.384v-.513h4.026zm-2.85-2.81c-.007.821.587 1.566 1.524 1.86l-.321.506c-.715-.232-1.251-.718-1.525-1.34a2.589 2.589 0 0 1-1.558 1.456l-.328-.512c.957-.322 1.544-1.122 1.544-1.97v-.47h.664v.47z" fill="#fff"/>
        <rect opacity=".2" x="277" y="49" width="31" height="12" rx="6" fill="#000"/>
        <path d="m283.57 58 2.453-4.766v-.039h-2.843v-.851h3.898v.867L284.625 58h-1.055zm6.289.078c-1.359 0-2.171-1.055-2.171-2.906 0-1.844.812-2.906 2.171-2.906 1.352 0 2.172 1.062 2.172 2.906 0 1.851-.812 2.906-2.172 2.906zm0-.851c.711 0 1.149-.696 1.149-2.055 0-1.352-.446-2.063-1.149-2.063-.703 0-1.148.711-1.148 2.063 0 1.36.437 2.055 1.148 2.055zm5.321-4.883V58h-1.024v-4.664h-.031l-1.32.844v-.93l1.398-.906h.977zm7.265.234v.703h-5.836v-.703h2.493v-.851h.859v.851h2.484zm.328 4.656v.703h-6.453v-.703h2.782v-.867c-1.223-.097-1.961-.586-1.954-1.367-.007-.852.907-1.36 2.383-1.36 1.453 0 2.375.508 2.375 1.36 0 .777-.742 1.266-1.945 1.36v.874h2.812zm-3.242-2.914c-.961.008-1.5.235-1.492.68-.008.453.531.68 1.492.688.946-.008 1.485-.235 1.485-.688 0-.445-.539-.672-1.485-.68z" fill="#fff"/>
        <path opacity=".7" d="M286.717 170.914c.916 0 1.565.834 1.572 2.147-.007 1.319-.656 2.153-1.572 2.153s-1.572-.834-1.566-2.153c-.006-1.313.65-2.147 1.566-2.147zm0 .581c-.561 0-.944.602-.944 1.566 0 .97.383 1.572.944 1.572.567 0 .95-.602.95-1.572 0-.964-.383-1.566-.95-1.566zm3.131-1.039v2.399h.984v.547h-.984v3.179h-.65v-6.125h.65zm6.398.007v6.118h-.656v-1.463h-1.354v-.492h1.354v-4.163h.656zm-5.147 3.185c1.162-.006 2.707-.013 4.047-.198l.034.479a15.52 15.52 0 0 1-1.778.198v2.263h-.649v-2.229c-.561.024-1.094.027-1.565.027l-.089-.54zm2.016-2.905c.903 0 1.552.499 1.552 1.224 0 .738-.649 1.217-1.552 1.217-.923 0-1.565-.479-1.565-1.217 0-.725.642-1.224 1.565-1.224zm0 .499c-.567 0-.957.294-.95.725-.007.437.383.718.95.718.547 0 .937-.281.937-.718 0-.431-.39-.725-.937-.725zm7.54-.335v.527h-.581v1.681c.291-.02.574-.048.848-.082l.041.486c-1.237.198-2.673.218-3.712.218l-.075-.547c.232 0 .485.004.752 0v-1.756h-.581v-.527h3.308zm1.333 3.405v2.194h-3.91v-2.194h3.91zm-3.274.512v1.155h2.632v-1.155h-2.632zm3.274-4.368v1.442h.889v.534h-.889v1.572h-.649v-3.548h.649zm-3.431 2.728c.287-.007.584-.017.881-.035v-1.715h-.881v1.75z" fill="#fff"/>
        <rect opacity=".2" x="278" y="153" width="31" height="12" rx="6" fill="#000"/>
        <path d="m284.078 162 2.453-4.766v-.039h-2.843v-.851h3.898v.867L285.133 162h-1.055zm6.289.078c-1.359 0-2.172-1.055-2.172-2.906 0-1.844.813-2.906 2.172-2.906 1.352 0 2.172 1.062 2.172 2.906 0 1.851-.812 2.906-2.172 2.906zm0-.851c.711 0 1.149-.696 1.149-2.055 0-1.352-.446-2.063-1.149-2.063-.703 0-1.148.711-1.148 2.063 0 1.359.437 2.055 1.148 2.055zm2.922-.282v-.812l2.445-3.789H297v3.765h.742v.836H297V162h-.969v-1.055h-2.742zm1.039-.836h1.719V157.5h-.063l-1.656 2.57v.039zm10.117-3.531v.703h-5.836v-.703h2.493v-.851h.859v.851h2.484zm.328 4.656v.704h-6.453v-.704h2.782v-.867c-1.223-.097-1.961-.586-1.954-1.367-.007-.852.907-1.359 2.383-1.359 1.453 0 2.375.507 2.375 1.359 0 .777-.742 1.266-1.945 1.359v.875h2.812zm-3.242-2.914c-.961.008-1.5.235-1.492.68-.008.453.531.68 1.492.688.946-.008 1.485-.235 1.485-.688 0-.445-.539-.672-1.485-.68z" fill="#fff"/>
        <path opacity=".7" d="M282.532 227.255v.533h-5.605v-.533h5.605zm-4.313-4.375v1.1h3.008v-1.1h.642v3.213h-4.3v-3.213h.65zm0 2.7h3.008v-1.087h-3.008v1.087zm7.13-2.468v2.181h-1.552v1.258c.666-.004 1.302-.028 2.057-.164l.055.533c-.847.15-1.545.171-2.317.178h-.424v-2.325h1.559v-1.134h-1.566v-.527h2.188zm2.884-.656v6.125h-.622v-6.125h.622zm-1.257.137v5.674h-.616v-3.118h-.724v-.526h.724v-2.03h.616zm7.129-.13v4.45h-.649v-4.45h.649zm.185 5.462v.526h-4.19v-1.989h.656v1.463h3.534zm-3.507-5.052c.923 0 1.627.629 1.627 1.518 0 .902-.704 1.524-1.627 1.524s-1.634-.622-1.634-1.524c0-.889.711-1.518 1.634-1.518zm0 .567c-.574 0-.998.39-.998.951 0 .574.424.957.998.957.561 0 .991-.383.991-.957 0-.561-.43-.951-.991-.951zm7.499-.642c0 1.586-.868 2.714-2.803 3.308l-.259-.526c.957-.277 1.592-.684 1.968-1.189l-1.886.143-.103-.526 2.249-.096a2.25 2.25 0 0 0 .144-.588h-2.085v-.526h2.775zm1.901-.335v3.514h-.65v-1.395h-1.271v-.533h1.271v-1.586h.65zm0 3.828v2.215h-4.006v-2.215h4.006zm-3.371.52v1.168h2.728v-1.168h-2.728zm7.869-3.747v.534h-.67v2.878c.29-.018.574-.045.847-.076l.041.479c-1.251.198-2.686.225-3.746.225l-.068-.54.779-.013v-2.953h-.594v-.534h3.411zm1.551-.608v6.125h-.642v-3.309h-1.108v-.533h1.108v-2.283h.642zm-3.732 4.088c.291-.007.591-.017.889-.034v-2.912h-.889v2.946zm9.762-4.088v6.125h-.65v-6.125h.65zm-4.068.595v3.411a14.552 14.552 0 0 0 2.817-.28l.089.547a15.134 15.134 0 0 1-3.036.293h-.512v-3.971h.642z" fill="#fff"/>
        <rect opacity=".2" x="279" y="207" width="31" height="12" rx="6" fill="#000"/>
        <path d="m285.305 216 2.453-4.766v-.039h-2.844v-.851h3.898v.867L286.359 216h-1.054zm6.289.078c-1.36 0-2.172-1.055-2.172-2.906 0-1.844.812-2.906 2.172-2.906 1.351 0 2.172 1.062 2.172 2.906 0 1.851-.813 2.906-2.172 2.906zm0-.851c.711 0 1.148-.696 1.148-2.055 0-1.352-.445-2.063-1.148-2.063-.703 0-1.149.711-1.149 2.063 0 1.359.438 2.055 1.149 2.055zm5.031.851c-1.133 0-1.961-.672-1.992-1.609h.992c.031.461.461.789 1 .789.633 0 1.086-.461 1.086-1.086 0-.649-.469-1.11-1.117-1.11-.438-.007-.758.149-.938.485h-.945l.344-3.203h3.343v.851h-2.507l-.172 1.5h.054c.219-.25.633-.429 1.094-.429 1.055 0 1.828.789 1.828 1.875 0 1.132-.851 1.937-2.07 1.937zm8.82-5.5v.703h-5.836v-.703h2.493v-.851h.859v.851h2.484zm.328 4.656v.704h-6.453v-.704h2.782v-.867c-1.223-.097-1.961-.586-1.954-1.367-.007-.852.907-1.359 2.383-1.359 1.453 0 2.375.507 2.375 1.359 0 .777-.742 1.266-1.945 1.359v.875h2.812zm-3.242-2.914c-.961.008-1.5.235-1.492.68-.008.453.531.68 1.492.688.946-.008 1.485-.235 1.485-.688 0-.445-.539-.672-1.485-.68z" fill="#fff"/>
        <path opacity=".7" d="M273.918 301.113c.007-1.285.37-2.358 1.012-3.274h.67c-.472.677-.923 2.057-.923 3.274 0 1.224.451 2.598.923 3.282h-.67c-.642-.916-1.005-1.99-1.012-3.282zm7.718-.205v.527h-2.488v2.139h-.636v-2.139h-2.461v-.527h5.585zm-.526-3.09v.52h-1.894c.011.759.954 1.435 2.113 1.593l-.24.512c-1.005-.157-1.873-.652-2.242-1.353-.379.701-1.244 1.196-2.235 1.353l-.246-.512c1.145-.158 2.088-.834 2.112-1.593h-1.907v-.52h4.539zm2.673 3.295c-.007 1.292-.369 2.366-1.012 3.282h-.67c.472-.684.923-2.058.923-3.282 0-1.217-.451-2.597-.923-3.274h.67c.643.916 1.005 1.989 1.012 3.274zm5.783-.752v.534H285.3v-2.892h4.211v.533h-3.568v1.825h3.623zm.642 1.873v.54h-5.605v-.54h5.605zm5.524-4.771v3.63h-.649v-3.63h.649zm-1.955.362v1.723h-2.167v.738c1.07.004 1.859-.034 2.789-.184l.082.533c-.998.157-1.839.191-2.994.184h-.513v-1.777h2.16v-.697h-2.174v-.52h2.817zm1.955 3.575v2.106h-4.026V301.4h4.026zm-3.384.52v1.059h2.748v-1.059h-2.748zm9.427-4.464v6.139h-.65v-6.139h.65zm-1.75.567v.54h-2.276v2.974c1.162-.003 1.903-.034 2.768-.191l.068.54c-.916.164-1.715.205-2.987.205h-.506v-4.068h2.933zm4.183-.095c.735 0 1.292.495 1.395 1.251h.567v-1.614h.609v4.287h-.609v-2.133h-.574c-.116.728-.666 1.217-1.388 1.21-.82.007-1.408-.616-1.401-1.497-.007-.896.581-1.504 1.401-1.504zm0 .553c-.478 0-.82.383-.82.951 0 .567.342.943.82.943.472 0 .821-.376.828-.943-.007-.568-.356-.951-.828-.951zm3.767-1.025v4.58h-.615v-4.58h.615zm.178 5.469v.526h-4.238v-2.01h.642v1.484h3.596zm5.92-5.469v6.125h-.622v-6.125h.622zm-1.244.116v5.708h-.622v-2.953h-.691c-.055 1.196-.567 1.942-1.326 1.935-.8.007-1.319-.834-1.319-2.16 0-1.327.519-2.161 1.319-2.154.745-.007 1.251.701 1.326 1.853h.691v-2.229h.622zm-2.639.985c-.444 0-.718.567-.718 1.545 0 .977.274 1.544.718 1.544.451 0 .731-.567.731-1.544 0-.978-.28-1.545-.731-1.545zm7.772-.233c0 .998 1.067 1.942 2.243 2.154l-.301.54c-.978-.212-1.88-.855-2.277-1.716-.403.854-1.302 1.497-2.283 1.716l-.287-.54c1.162-.219 2.222-1.156 2.222-2.154v-.465h.683v.465zm2.496 3.91v.54h-5.606v-.54h5.606z" fill="#fff"/>
        <rect opacity=".2" x="281" y="280" width="31" height="12" rx="6" fill="#000"/>
        <path d="m287.195 289 2.453-4.766v-.039h-2.843v-.851h3.898v.867L288.25 289h-1.055zm6.289.078c-1.359 0-2.172-1.055-2.172-2.906 0-1.844.813-2.906 2.172-2.906 1.352 0 2.172 1.062 2.172 2.906 0 1.851-.812 2.906-2.172 2.906zm0-.851c.711 0 1.149-.696 1.149-2.055 0-1.352-.445-2.063-1.149-2.063-.703 0-1.148.711-1.148 2.063 0 1.359.437 2.055 1.148 2.055zm5.078.851c-1.257 0-2.148-.672-2.148-1.594 0-.718.531-1.304 1.211-1.414v-.031c-.594-.125-1-.641-1-1.258 0-.875.82-1.515 1.937-1.515 1.11 0 1.93.64 1.93 1.515 0 .617-.414 1.133-1 1.258v.031c.68.11 1.219.696 1.219 1.414 0 .922-.899 1.594-2.149 1.594zm0-.805c.665 0 1.102-.359 1.102-.882 0-.532-.469-.922-1.102-.922-.64 0-1.109.39-1.101.922-.008.523.43.882 1.101.882zm0-2.562c.547 0 .938-.344.938-.836 0-.477-.383-.813-.938-.813-.562 0-.945.329-.945.813 0 .492.391.836.945.836zm8.883-2.133v.703h-5.836v-.703h2.493v-.851h.859v.851h2.484zm.328 4.656v.704h-6.453v-.704h2.782v-.867c-1.223-.097-1.961-.586-1.954-1.367-.007-.852.907-1.359 2.383-1.359 1.453 0 2.375.507 2.375 1.359 0 .777-.742 1.266-1.945 1.359v.875h2.812zm-3.242-2.914c-.961.008-1.5.235-1.492.68-.008.453.531.68 1.492.688.946-.008 1.485-.235 1.485-.688 0-.445-.539-.672-1.485-.68z" fill="#fff"/>
        <path opacity=".7" d="M277.943 386.113c.007-1.285.369-2.358 1.012-3.274h.67c-.472.677-.923 2.057-.923 3.274 0 1.224.451 2.598.923 3.282h-.67c-.643-.916-1.005-1.99-1.012-3.282zm7.718-.205v.527h-2.488v2.139h-.636v-2.139h-2.461v-.527h5.585zm-.526-3.09v.52h-1.894c.01.759.954 1.435 2.113 1.593l-.24.512c-1.005-.157-1.873-.652-2.242-1.353-.379.701-1.244 1.196-2.235 1.353l-.246-.512c1.145-.158 2.088-.834 2.112-1.593h-1.907v-.52h4.539zm2.673 3.295c-.007 1.292-.37 2.366-1.012 3.282h-.67c.472-.684.923-2.058.923-3.282 0-1.217-.451-2.597-.923-3.274h.67c.642.916 1.005 1.989 1.012 3.274zm1.763-3.308v.923h1.532v-.923h.642v1.169h1.34v-1.518h.649v3.548h-.649v-1.49h-1.34v1.175h-2.823v-2.884h.649zm0 2.365h1.532v-.93h-1.532v.93zm4.163 1.121v2.215h-4.04v-2.215h4.04zm-3.397.52v1.168h2.762v-1.168h-2.762zm9.447-4.348v4.512h-.649v-2.126h-1.272v-.54h1.272v-1.846h.649zm-1.88.458c-.007 1.6-1.107 2.803-2.864 3.37l-.273-.52c1.363-.44 2.29-1.274 2.426-2.31h-2.112v-.54h2.823zm2.037 5.004v.526h-4.101v-1.941h.656v1.415h3.445zm6.371-2.406v.519h-2.474v.643h1.791v1.886h-.656v-1.36h-3.623v-.526h1.845v-.643h-2.467v-.519h5.584zm-2.474-3.083v.608h1.914v.513h-1.873c.061.608.902 1.056 2.126 1.169l-.205.485c-1.053-.096-1.907-.448-2.283-1.025-.38.577-1.234.929-2.284 1.025l-.205-.485c1.217-.113 2.058-.561 2.133-1.169h-1.873v-.513h1.907v-.608h.643zm6.05 2.201v.827h2.474v.533h-5.585v-.533h2.468v-.827h.643zm-.322 1.804c1.327 0 2.113.376 2.113 1.067 0 .683-.786 1.066-2.113 1.059-1.333.007-2.126-.376-2.126-1.059 0-.691.793-1.067 2.126-1.067zm0 .499c-.943 0-1.469.199-1.469.568 0 .369.526.567 1.469.567.93 0 1.463-.198 1.463-.567 0-.369-.533-.568-1.463-.568zm2.297-4.204v.52h-1.859c.092.584.96 1.08 2.071 1.189l-.232.513c-1.067-.123-1.942-.561-2.277-1.21-.335.649-1.21 1.087-2.269 1.21l-.233-.513c1.104-.109 1.973-.598 2.065-1.189h-1.839v-.52h4.573zm5.777-.28v1.538h.888v.547h-.888v1.483h-.65v-3.568h.65zm-3.275 3.821v.595h2.625v-.595h.65v2.229h-3.917v-2.229h.642zm0 1.709h2.625v-.608h-2.625v.608zm2.119-4.928v.519h-3.65v-.519h1.504v-.657h.649v.657h1.497zm-1.825.772c.882 0 1.484.417 1.484 1.073 0 .65-.602 1.08-1.484 1.074-.895.006-1.49-.424-1.49-1.074 0-.656.595-1.073 1.49-1.073zm0 .485c-.519-.006-.868.233-.861.588-.007.363.342.595.861.595.52 0 .868-.232.875-.595-.007-.355-.355-.594-.875-.588zm-29.476 6.148v4.512h-.65v-2.126h-1.271v-.54h1.271v-1.846h.65zm-1.88.458c-.007 1.6-1.108 2.803-2.865 3.37l-.273-.52c1.364-.44 2.29-1.274 2.427-2.31h-2.113v-.54h2.824zm2.037 5.004v.526h-4.102v-1.941h.657v1.415h3.445zm6.371-2.406v.519h-2.475v.643h1.791v1.886h-.656v-1.36h-3.623v-.526h1.846v-.643h-2.468v-.519h5.585zm-2.475-3.083v.608h1.914v.513h-1.873c.062.608.903 1.056 2.126 1.169l-.205.485c-1.052-.096-1.907-.448-2.283-1.025-.379.577-1.234.929-2.283 1.025l-.205-.485c1.217-.113 2.057-.561 2.133-1.169h-1.873v-.513h1.907v-.608h.642zm5.066 1.579c-.007 1.087.622 2.194 1.538 2.638l-.403.52c-.667-.345-1.183-1.032-1.45-1.853-.277.875-.813 1.607-1.51 1.969l-.404-.526c.944-.451 1.579-1.627 1.579-2.748v-1.046h.65v1.046zm2.645-1.559v2.44h.985v.554h-.985v3.131h-.649v-6.125h.649zm3.405 1.559c-.007 1.087.622 2.194 1.538 2.638l-.404.52c-.666-.345-1.182-1.032-1.449-1.853-.277.875-.813 1.607-1.511 1.969l-.403-.526c.943-.451 1.579-1.627 1.579-2.748v-1.046h.65v1.046zm2.645-1.559v2.44h.984v.554h-.984v3.131h-.649v-6.125h.649zm6.877 3.514v.526h-2.502v2.078h-.636v-2.078h-2.467v-.526h5.605zm-.704-3.186v2.406h-4.197v-2.406h4.197zm-3.562.52v1.381h2.913v-1.381h-2.913zm10.323 3.965v.533h-5.606v-.533h2.454v-1.457h.643v1.457h2.509zm-2.495-3.958c0 .97 1.066 1.879 2.249 2.078l-.281.533c-.991-.198-1.904-.81-2.31-1.654-.404.84-1.306 1.462-2.29 1.654l-.287-.533c1.175-.199 2.235-1.108 2.235-2.078v-.465h.684v.465z" fill="#fff"/>
        <rect opacity=".2" x="282" y="365" width="31" height="12" rx="6" fill="#000"/>
        <path d="m288.445 374 2.453-4.766v-.039h-2.843v-.851h3.898v.867L289.5 374h-1.055zm6.625-5.656V374h-1.023v-4.664h-.031l-1.321.844v-.93l1.399-.906h.976zm3.461 5.734c-1.359 0-2.172-1.055-2.172-2.906 0-1.844.813-2.906 2.172-2.906 1.352 0 2.172 1.062 2.172 2.906 0 1.851-.812 2.906-2.172 2.906zm0-.851c.711 0 1.149-.696 1.149-2.055 0-1.352-.446-2.063-1.149-2.063-.703 0-1.148.711-1.148 2.063 0 1.359.437 2.055 1.148 2.055zm8.914-4.649v.703h-5.836v-.703h2.493v-.851h.859v.851h2.484zm.328 4.656v.704h-6.453v-.704h2.782v-.867c-1.223-.097-1.961-.586-1.954-1.367-.007-.852.907-1.359 2.383-1.359 1.453 0 2.375.507 2.375 1.359 0 .777-.742 1.266-1.945 1.359v.875h2.812zm-3.242-2.914c-.961.008-1.5.235-1.492.68-.008.453.531.68 1.492.688.946-.008 1.485-.235 1.485-.688 0-.445-.539-.672-1.485-.68z" fill="#fff"/>
        <path opacity=".7" d="M271.169 259h-1.377v-4.242h1.418c1.248 0 1.998.797 1.998 2.115 0 1.324-.75 2.127-2.039 2.127zm-.732-.562h.697c.961 0 1.435-.563 1.435-1.565 0-.996-.474-1.553-1.4-1.553h-.732v3.118zm3.644.562h-.685l1.523-4.242h.744l1.529 4.242h-.685l-.387-1.119h-1.652l-.387 1.119zm.574-1.658h1.278l-.627-1.811h-.03l-.621 1.811zM278.2 259l-1.178-4.242h.68l.826 3.281h.035l.862-3.281h.668l.861 3.281h.035l.826-3.281h.68L281.317 259h-.65l-.891-3.17h-.035l-.89 3.17h-.651zm8.291-2.121c0 1.353-.814 2.18-1.91 2.18-1.107 0-1.916-.827-1.916-2.18 0-1.359.809-2.18 1.916-2.18 1.096 0 1.91.821 1.91 2.18zm-.638 0c0-1.031-.545-1.588-1.272-1.588-.732 0-1.277.557-1.277 1.588 0 1.031.545 1.588 1.277 1.588.727 0 1.272-.557 1.272-1.588zm4.787-2.121V259h-.592l-2.151-3.1h-.035v3.1h-.644v-4.242h.597l2.151 3.105h.041v-3.105h.633zm2.121.556v-.556h3.287v.556h-1.319V259h-.644v-3.686h-1.324zm3.797 3.686h-.686l1.524-4.242h.744l1.529 4.242h-.686l-.386-1.119h-1.653l-.386 1.119zm.574-1.658h1.277l-.627-1.811h-.029l-.621 1.811zm3.527-2.584 1.008 1.652h.035l1.014-1.652h.744l-1.324 2.121 1.336 2.121h-.756l-1.014-1.635h-.035l-1.02 1.635h-.75l1.354-2.121-1.348-2.121h.756zm8.52 2.121c0 1.353-.815 2.18-1.91 2.18-1.108 0-1.916-.827-1.916-2.18 0-1.359.808-2.18 1.916-2.18 1.095 0 1.91.821 1.91 2.18zm-.639 0c0-1.031-.545-1.588-1.271-1.588-.733 0-1.278.557-1.278 1.588 0 1.031.545 1.588 1.278 1.588.726 0 1.271-.557 1.271-1.588zm2.83-1.061v.498h-.685V259h-.627v-2.684h-.493v-.498h.493v-.369c0-.568.363-.89.949-.89.152 0 .305.017.428.041v.521a1.938 1.938 0 0 0-.264-.023c-.334 0-.486.134-.486.445v.275h.685zm2.086 0v.498h-.685V259h-.627v-2.684h-.493v-.498h.493v-.369c0-.568.363-.89.949-.89.152 0 .304.017.428.041v.521a1.938 1.938 0 0 0-.264-.023c-.334 0-.486.134-.486.445v.275h.685zm.568 3.182v-3.182h.627V259h-.627zm.317-3.674c-.217 0-.399-.164-.399-.369s.182-.369.399-.369c.211 0 .392.164.392.369s-.181.369-.392.369zm2.42 3.738c-.926 0-1.489-.685-1.489-1.64 0-.973.581-1.647 1.477-1.647.727 0 1.254.428 1.318 1.073h-.609a.681.681 0 0 0-.697-.551c-.516 0-.862.428-.862 1.107 0 .698.34 1.125.862 1.125.351 0 .621-.193.697-.539h.609c-.07.615-.556 1.072-1.306 1.072zm3.269 0c-.937 0-1.511-.644-1.511-1.634 0-.979.585-1.653 1.47-1.653.727 0 1.412.452 1.412 1.6v.223h-2.261c.017.603.372.949.896.949.358 0 .586-.153.692-.346h.632c-.14.516-.632.861-1.33.861zm-.884-1.933h1.64c0-.486-.31-.838-.791-.838-.501 0-.826.387-.849.838z" fill="#fff"/>
        <rect opacity=".2" x="280" y="239" width="31" height="12" rx="6" fill="#000"/>
        <path d="m286.18 248 2.453-4.766v-.039h-2.844v-.851h3.899v.867L287.234 248h-1.054zm6.289.078c-1.36 0-2.172-1.055-2.172-2.906 0-1.844.812-2.906 2.172-2.906 1.351 0 2.172 1.062 2.172 2.906 0 1.851-.813 2.906-2.172 2.906zm0-.851c.711 0 1.148-.696 1.148-2.055 0-1.352-.445-2.063-1.148-2.063-.703 0-1.149.711-1.149 2.063 0 1.359.438 2.055 1.149 2.055zm5.14.851c-1.101-.008-2.211-.664-2.203-2.75 0-1.937.883-3.062 2.266-3.062 1.094 0 1.844.687 1.969 1.601h-1.008c-.102-.429-.445-.719-.961-.719-.82 0-1.281.727-1.281 1.914h.054c.289-.484.836-.773 1.453-.773 1.016 0 1.797.766 1.797 1.836 0 1.125-.836 1.961-2.086 1.953zm0-.82c.633 0 1.102-.492 1.102-1.11a1.07 1.07 0 0 0-1.086-1.086c-.633 0-1.117.5-1.125 1.094a1.102 1.102 0 0 0 1.109 1.102zm8.836-4.68v.703h-5.836v-.703h2.493v-.851h.859v.851h2.484zm.328 4.656v.704h-6.453v-.704h2.782v-.867c-1.223-.097-1.961-.586-1.954-1.367-.007-.852.907-1.359 2.383-1.359 1.453 0 2.375.507 2.375 1.359 0 .777-.742 1.266-1.945 1.359v.875h2.812zm-3.242-2.914c-.961.008-1.5.235-1.492.68-.008.453.531.68 1.492.688.946-.008 1.485-.235 1.485-.688 0-.445-.539-.672-1.485-.68z" fill="#fff"/>
        <path opacity=".7" d="M187.838 428.305c1.326 0 2.16.417 2.167 1.134-.007.711-.841 1.135-2.167 1.128-1.313.007-2.153-.417-2.153-1.128 0-.717.84-1.134 2.153-1.134zm0 .492c-.93 0-1.511.239-1.504.642-.007.397.574.629 1.504.629.936 0 1.517-.232 1.524-.629-.007-.403-.588-.642-1.524-.642zm2.119-4.04v.513c0 .492 0 .998-.171 1.626l-.636-.068c.164-.625.164-1.077.164-1.552h-3.582v-.519h4.225zm.697 2.515v.527h-5.571v-.527h2.235v-1.148h.636v1.148h2.7zm6.077 2.01v.533h-5.605v-.533h2.475v-1.449h.649v1.449h2.481zm-2.474-3.712c0 .937 1.059 1.771 2.228 1.955l-.259.513c-.988-.188-1.901-.762-2.297-1.565-.4.813-1.306 1.404-2.277 1.592l-.266-.512c1.141-.192 2.194-1.046 2.194-1.983v-.054h-1.989v-.534h4.655v.534h-1.989v.054zm7.991-1.114v3.151h-.643v-3.151h.643zm.007 3.445v1.532h-3.377V430h3.582v.52h-4.211v-1.58h3.363v-.526h-3.383v-.513h4.026zm-2.851-2.809c-.007.82.588 1.565 1.525 1.859l-.322.506c-.714-.232-1.251-.718-1.524-1.34a2.588 2.588 0 0 1-1.559 1.456l-.328-.512c.957-.322 1.545-1.122 1.545-1.969v-.472h.663v.472z" fill="#fff"/>
        <path d="M67 123h.5l10 47H77l-10-47zM77 170h.5v29H77zM150.5 218h.5l30 138h-.5l-30-138zM167 0h.5v105h-.5zM237 0h.5l4 105h-.5L237 0zM255 0h.5l16 447h-.5L255 0z" fill="#777"/>
        <path fill="#777" d="M0 104.5h241v.5H0zM0 123h67v.5H0zM0 199h151v.5H0zM.5 299h168v.5H.5zM0 356h181v.5H0zM135 408h117v.5H135zM266.5 318H326v.5h-59.5v-.5zM265 266h61v.5h-61zM263.5 232h62v.5h-62zM262.5 203h63v.5h-63zM259.5 121h66v.5h-66z"/>
        <path fill="#777" d="M135 356h-.5v91h.5zM77 170h74v.5H77zM99 151.5h52v.5H99zM99 123h52v.5H99z"/>
        <path fill="#777" d="M150.5 123h.5v29h-.5zM150.5 170h.5v29h-.5zM150.5 199h.5v19h-.5zM99 123h.5v29H99zM252 408h.5l1 39h-.5l-1-39z"/>
    </g>
    <rect x=".25" y=".25" width="325.5" height="446.5" rx="3.75" stroke="#777" stroke-width=".5"/>
    <defs>
        <clipPath id="w96xikwe3a">
            <rect width="326" height="447" rx="4" fill="#fff"/>
        </clipPath>
        <clipPath id="0i3pa2twvb">
            <path fill="#fff" transform="translate(201 136)" d="M0 0h10v10H0z"/>
        </clipPath>
        <clipPath id="w5giawwolc">
            <path fill="#fff" transform="translate(242 5)" d="M0 0h10v10H0z"/>
        </clipPath>
        <clipPath id="fsc5ju8tsd">
            <path fill="#fff" transform="translate(257 429)" d="M0 0h10v10H0z"/>
        </clipPath>
        <clipPath id="nvu3hsyrae">
            <path fill="#fff" transform="translate(185 231)" d="M0 0h10v10H0z"/>
        </clipPath>
        <clipPath id="5dduvj9xxf">
            <path fill="#fff" transform="translate(80 125)" d="M0 0h10v10H0z"/>
        </clipPath>
        <clipPath id="5j4tet4tkg">
            <path fill="#fff" transform="translate(205 231)" d="M0 0h10v10H0z"/>
        </clipPath>
        <clipPath id="79wc2an93h">
            <path fill="#fff" transform="translate(225 231)" d="M0 0h10v10H0z"/>
        </clipPath>
        <clipPath id="q6auxblz1i">
            <path fill="#fff" transform="translate(24 109)" d="M0 0h10v10H0z"/>
        </clipPath>
        <clipPath id="epdfrxe8cj">
            <path fill="#fff" transform="translate(80 140)" d="M0 0h10v10H0z"/>
        </clipPath>
        <clipPath id="05atihctkk">
            <path fill="#fff" transform="translate(220 371)" d="M0 0h10v10H0z"/>
        </clipPath>
        <clipPath id="w8vr05ccal">
            <path fill="#fff" transform="translate(144 360)" d="M0 0h10v10H0z"/>
        </clipPath>
        <clipPath id="96972mpedm">
            <path fill="#fff" transform="translate(144 378)" d="M0 0h10v10H0z"/>
        </clipPath>
        <clipPath id="u1bpaj5nzn">
            <path fill="#fff" transform="translate(162 378)" d="M0 0h10v10H0z"/>
        </clipPath>
    </defs>
</svg>
