<svg width="80" height="24" viewBox="0 0 80 24" fill="none" xmlns="http://www.w3.org/2000/svg">
    <path d="m19.25 14.917-2.17.723a.25.25 0 0 1-.33-.237v-6.14a.25.25 0 0 1 .17-.236l2.33-.777m0 6.667 2.5.833m-2.5-.833V8.25m0 0 2.5.833m0 6.667 2.33-.776a.25.25 0 0 0 .17-.238v-6.14a.25.25 0 0 0-.33-.236l-2.17.723m0 6.667V9.083" stroke="#fff" stroke-width=".8" stroke-linecap="round" stroke-linejoin="round"/>
    <path d="M33.883 8.633v3.789h-.875v-3.79h.875zM30.07 12.75v.727h2.946v-.727h.867v2.86H29.21v-2.86h.86zm0 2.156h2.946v-.75H30.07v.75zm-.039-5.96c1.086-.008 1.899.671 1.899 1.656 0 .96-.813 1.64-1.899 1.64-1.093 0-1.906-.68-1.906-1.64 0-.985.813-1.665 1.906-1.657zm0 .726c-.617 0-1.062.36-1.054.93-.008.562.437.921 1.054.93.61-.009 1.047-.368 1.047-.93 0-.57-.437-.93-1.047-.93zm11.32 2.898v.703h-2.804v2.415h-.86v-2.415h-2.773v-.703h6.438zm-.593-3.539v.688H38.64c.05.773.98 1.515 2.375 1.695l-.313.68c-1.203-.168-2.14-.719-2.57-1.485-.43.766-1.367 1.317-2.555 1.485l-.328-.68c1.387-.18 2.316-.922 2.383-1.695h-2.125V9.03h5.25zm3.594 1.297c-.008 1.258.625 2.54 1.718 3.063l-.53.695c-.767-.387-1.317-1.133-1.618-2.031-.309.96-.887 1.758-1.695 2.164l-.532-.696c1.133-.539 1.782-1.89 1.79-3.195V9.203h.867v1.125zm3.007-1.695v2.765h1.086v.743H47.36v3.554h-.867V8.633h.867zm8.899.289v2.453h-1.969v.742h2.79v.703H50.64v-.703h2.773v-.742h-1.96V8.922h4.804zm-3.961.68v1.085h3.101V9.602h-3.101zm3.992 3.812v2.281h-.867v-1.593h-4.07v-.688h4.937zm7.711-.96v.702h-6.453v-.703h2.797v-.586h-1.977V9.992h3.969V9.47h-3.992v-.68h4.86v1.836h-3.977v.563h4.117v.68h-2.14v.585H64zm-.758 1.148v2.046h-.875V14.29h-4.101v-.687h4.976z" fill="#fff"/>
    <rect x=".25" y=".25" width="79.5" height="23.5" rx="3.75" stroke="#595959" stroke-width=".5"/>
</svg>
