<svg width="73" height="15" viewBox="0 0 73 15" fill="none" xmlns="http://www.w3.org/2000/svg">
    <g clip-path="url(#sy9soc049a)" fill="#fff">
        <path d="M73 6.59a.823.823 0 0 1-.842.827.828.828 0 0 1-.847-.827c0-.462.376-.816.847-.816s.842.364.842.816zm-1.478 0c0 .364.27.652.641.652s.627-.288.627-.646c0-.358-.266-.657-.632-.657a.636.636 0 0 0-.636.651zm.506.428h-.19v-.816c.074-.015.18-.024.315-.024.155 0 .225.024.286.06.045.034.08.099.08.179 0 .09-.07.159-.17.189v.01c.08.03.125.09.15.199.025.124.04.174.06.204h-.206c-.025-.03-.04-.105-.065-.2-.015-.089-.065-.129-.17-.129h-.09v.329zm.005-.462h.09c.105 0 .19-.035.19-.12 0-.074-.055-.124-.175-.124a.452.452 0 0 0-.105.01v.234zM15.803 4.913l-.008.007c-.997.855-2.27 1.346-3.564 1.593-1.294.247-2.62.263-3.938.265-1.308.002-2.624-.01-3.91-.246-1.285-.236-2.551-.71-3.557-1.54-.145-.12-.528-.372-.675-.118-.071.125-.075.351-.096.493a5.38 5.38 0 0 0 .332 2.77c.201.497.488.975.914 1.303.49.375 1.123.522 1.741.536.618.014 1.23-.094 1.843-.18a25.277 25.277 0 0 1 7.046.019c.994.142 2.07.329 2.952-.15.662-.36 1.088-1.043 1.337-1.75a5.451 5.451 0 0 0 .228-2.735c-.032-.184-.113-.404-.3-.428-.13-.017-.245.075-.345.16v.001zM1.258 12.065c-.164-.356-.06-.684.56-.817.796-.17 1.656.018 2.376.332.921.402 1.728.98 2.61 1.446 3.523 1.86 6.826.523 7.61.227-1.619 1.125-4.244 1.8-6.553 1.726-2.309-.075-4.605-.907-6.195-2.387a1.78 1.78 0 0 1-.408-.527zM15.883 2.952a.786.786 0 0 1-.067.531c-.162.303-.52.446-.858.512a3.306 3.306 0 0 1-1.784-.151c-.923-.348-1.632-1.084-2.436-1.653A7.744 7.744 0 0 0 7.416.871 9.237 9.237 0 0 0 5.263.82c-.721.062-1.435.194-2.137.368-.247.06-.501.118-.743.2a9.39 9.39 0 0 1 .88-.458c.303-.132.615-.244.932-.34C4.834.397 5.49.27 6.152.18c.176-.024.35-.045.527-.064C9-.135 11.419-.026 13.56.9c.71.307 1.394.711 1.908 1.288.192.215.36.489.414.764zM26.145 13.894 26.716 15h-1.248l-.571-1.106-.598-1.16-.027-.053a1.107 1.107 0 0 0-.945-.531h-1.115V15h-1.114V8.804h3.942c.464 0 .883.186 1.186.487.303.31.49.726.49 1.186 0 .673-.4 1.257-.98 1.523-.152.07-.313.115-.482.133l.892 1.762zm-1.106-2.851c.08 0 .16-.018.232-.053a.562.562 0 0 0-.232-1.08h-2.827v1.142l2.827-.01zM33.837 11.892c0 1.709-1.4 3.099-3.122 3.099-1.721 0-3.121-1.39-3.121-3.1 0-1.708 1.4-3.098 3.121-3.098 1.722 0 3.122 1.39 3.122 3.099zm-1.115 0c0-1.098-.9-1.992-2.007-1.992a2.002 2.002 0 0 0-2.006 1.992c0 1.098.9 1.992 2.006 1.992a2.002 2.002 0 0 0 2.007-1.992zM40.727 13.017a1.983 1.983 0 0 1-1.989 1.974h-4.254V8.793h3.933c.927 0 1.685.753 1.685 1.673 0 .337-.098.647-.267.904.535.354.892.956.892 1.647zm-5.128-1.984h2.827c.312 0 .57-.257.57-.567a.573.573 0 0 0-.57-.566h-2.827v1.133zm3.139 2.842c.481 0 .874-.39.874-.867a.872.872 0 0 0-.874-.868h-3.14v1.744h3.14v-.01.001zM47.594 11.892c0 1.709-1.4 3.099-3.122 3.099-1.72 0-3.12-1.39-3.12-3.1 0-1.708 1.4-3.098 3.12-3.098 1.722 0 3.122 1.39 3.122 3.099zm-1.115 0c0-1.098-.9-1.992-2.007-1.992a2.002 2.002 0 0 0-2.006 1.992c0 1.098.9 1.992 2.006 1.992a2.002 2.002 0 0 0 2.007-1.992zM54.086 8.802v1.106h-2.56V15h-1.114V9.908h-2.56V8.802h6.234zM55.344 14.99V8.794h1.114v6.198h-1.114zM58.554 11.892c0 1.098.901 1.992 2.007 1.992h3.122v1.107H60.56c-1.721 0-3.121-1.39-3.121-3.1 0-1.708 1.4-3.098 3.121-3.098h3.122V9.9H60.56a2.003 2.003 0 0 0-2.007 1.992zM69.363 10.511v-.035a.573.573 0 0 0-.57-.567h-2.534a.573.573 0 0 0-.57.567v.035c0 .31.258.567.57.567h2.248c.58 0 1.097.248 1.453.638.027.026.045.053.072.08.276.336.445.77.445 1.239 0 1.08-.883 1.957-1.97 1.957h-1.954a1.965 1.965 0 0 1-1.97-1.957h1.114c0 .47.384.85.856.85h1.953c.473 0 .865-.38.865-.85a.86.86 0 0 0-.865-.85h-2.247c-.455 0-.865-.177-1.168-.469a1.533 1.533 0 0 1-.214-.266 1.637 1.637 0 0 1-.295-.947v-.036c0-.92.75-1.673 1.677-1.673h2.532c.928 0 1.686.753 1.686 1.673v.036l-1.115.009h.001zM27.632 6.375h.017l-.017.018v-.018zM33.745.323l-2.36 3.035 2.351 3.017H32.36L30.697 4.24l-1.663 2.135h-1.376L30 3.358 27.64.323h1.376l1.672 2.153L32.36.323h1.385zm-.017 6.07-.009-.018h.009v.018zM40.692 6.367h-1.219l-.557-1.081-1.333-2.594-1.332 2.594-.558 1.08h-1.22l.558-1.08L37.583.314l2.552 4.972.557 1.08zM22.155 3.591v1.141a.56.56 0 0 0 .558.554h4.21v1.08h-4.21a1.637 1.637 0 0 1-1.637-1.633V1.948c0-.899.731-1.634 1.637-1.634h4.21v1.08h-4.21a.56.56 0 0 0-.558.554v1.643z"/>
        <path d="M25.96 2.804h-3.112v1.09h3.112v-1.09z"/>
    </g>
    <defs>
        <clipPath id="sy9soc049a">
            <path fill="#fff" d="M0 0h73v15H0z"/>
        </clipPath>
    </defs>
</svg>
