<svg width="360" height="32" viewBox="0 0 360 32" fill="none" xmlns="http://www.w3.org/2000/svg">
    <path opacity=".6" fill="url(#b0w9g7gdqa)" d="M0 0h360v32H0z"/>
    <path d="M88.6 13.59c0 1.758 1.148 3.574 2.765 4.265l-.61.868c-1.236-.545-2.22-1.7-2.706-3.106-.487 1.5-1.477 2.777-2.696 3.375l-.644-.879c1.582-.738 2.754-2.718 2.766-4.523v-1.113h-2.403v-.926h5.918v.926H88.6v1.113zm4.828-3.094v10.5h-1.114v-10.5h1.114zm10.183 4.84v.89h-3.175v2.567h4.277v.914h-9.61v-.914h4.231v-2.566h-3.035v-4.922h7.219v.902h-6.106v3.129h6.199zm10.899-4.84v10.5h-1.067v-10.5h1.067zm-2.133.2v9.784h-1.066v-5.062h-1.184c-.094 2.05-.973 3.328-2.273 3.316-1.372.012-2.262-1.43-2.262-3.703 0-2.273.89-3.703 2.262-3.691 1.277-.012 2.144 1.201 2.273 3.176h1.184v-3.82h1.066zm-4.523 1.687c-.762 0-1.231.973-1.231 2.648 0 1.676.469 2.649 1.231 2.649.773 0 1.253-.973 1.253-2.649 0-1.676-.48-2.648-1.253-2.648zm11.777.785c0 1.922 1.078 3.832 2.683 4.559l-.679.89c-1.196-.598-2.092-1.787-2.555-3.223-.463 1.512-1.383 2.79-2.59 3.422l-.703-.902c1.629-.773 2.719-2.8 2.719-4.746v-1.793h1.125v1.793zm4.969-2.672V21.02h-1.102v-6.13h-2.344v-.902h2.344v-3.492h1.102zm13.277.012v7.957h-1.113v-1.008h-2.11v-.785h2.11v-6.164h1.113zm.258 9.363v.902h-7.582v-3.082h1.101v2.18h6.481zm-9.035-4.57c1.945-.012 4.558-.035 6.796-.317l.071.797c-.897.147-1.84.246-2.766.305v2.05h-1.113v-1.991c-1.02.046-1.998.052-2.848.046l-.14-.89zm3.433-4.395c1.535 0 2.602.739 2.602 1.852s-1.067 1.828-2.602 1.828c-1.558 0-2.613-.715-2.613-1.828s1.055-1.852 2.613-1.852zm0 .832c-.937-.011-1.57.387-1.558 1.02-.012.62.621 1.008 1.558 1.008.903 0 1.535-.387 1.547-1.008-.012-.633-.644-1.031-1.547-1.02zm15.164-1.242v4.254h1.688v.926h-1.688v5.32h-1.101v-10.5h1.101zm-2.015 1.64v.915h-6.223v-.914h2.59v-1.5h1.113v1.5h2.52zm-3.071 1.688c1.5 0 2.602 1.008 2.614 2.438-.012 1.441-1.114 2.437-2.614 2.449-1.511-.012-2.613-1.008-2.613-2.45 0-1.429 1.102-2.437 2.613-2.437zm0 .914c-.89 0-1.558.621-1.547 1.524-.011.914.657 1.523 1.547 1.511.891.012 1.547-.597 1.547-1.511 0-.903-.656-1.524-1.547-1.524zm11.133-1.57c-.012 1.922 1.149 3.844 2.777 4.57l-.667.88c-1.208-.575-2.163-1.753-2.649-3.188-.492 1.535-1.459 2.806-2.719 3.422l-.679-.938c1.652-.738 2.812-2.742 2.812-4.746v-1.793h1.125v1.793zm4.84-2.672V21.02h-1.113V10.496h1.113zm10.172 3.07v.891h-7.231v-3.586h1.102v2.695h6.129zm1.101 2.215v.89h-9.609v-.89h9.609zm-1.031 4.055v.914h-7.383v-3.082h1.114v2.168h6.269zm10.723-8.707v1.195h-2.121c.011 1.242.756 2.444 2.461 2.942l-.715 1.171c-1.178-.357-1.992-1.072-2.461-1.992-.475 1.078-1.342 1.934-2.625 2.356l-.762-1.184c1.77-.557 2.567-1.94 2.59-3.293h-2.18V11.13h5.813zm2.402-.715v2.473h1.442v1.218h-1.442v2.637h-1.5v-6.328h1.5zm-3.492 6.54c2.215-.013 3.598.75 3.598 2.05 0 1.3-1.383 2.074-3.598 2.074-2.262 0-3.656-.773-3.656-2.074 0-1.3 1.394-2.063 3.656-2.05zm0 1.16c-1.406 0-2.168.292-2.156.89-.012.61.75.914 2.156.914 1.383 0 2.121-.305 2.121-.914 0-.598-.738-.89-2.121-.89zm15.164.491v1.196h-9.762v-1.195h4.078V16.19h1.489v2.415h4.195zm-4.148-6.82c0 1.524 1.371 3.13 3.808 3.504l-.633 1.242c-1.875-.34-3.269-1.341-3.972-2.672-.703 1.325-2.086 2.338-3.949 2.672l-.633-1.242c2.414-.375 3.773-1.992 3.785-3.504v-.762h1.594v.762zm14.507 3.41v1.114h-9.761v-1.114h9.761zm-1.171 1.64v2.52h-5.977v.61h6.293v1.02h-7.781v-2.579h5.988v-.539h-6v-1.031h7.477zm-.012-6.233v2.507h-5.871v.575h6.058v1.007h-7.547v-2.53h5.86v-.54h-5.883v-1.02h7.383zm13.558-.106V21.02h-1.101v-5.73h-2.086v-.915h2.086v-3.879h1.101zm-3.363.938v.902h-3.785v2.039h3.34v.89h-3.34v2.344c1.758-.006 2.977-.047 4.371-.293l.117.903c-1.523.246-2.847.304-4.793.316h-.82v-7.101h4.91zm13.676-.938v10.5h-1.113v-10.5h1.113zm-4.746 3.375c0 1.676 1.113 3.387 2.742 4.078l-.609.856c-1.207-.528-2.174-1.617-2.661-2.942-.474 1.4-1.423 2.567-2.648 3.117l-.621-.855c1.629-.727 2.707-2.496 2.707-4.254v-.691h-2.391v-.89h2.379v-1.583h1.102v1.582h2.355v.89h-2.355v.692zm11.613-1.64v.902h-5.215v-.902h2.063V10.8h1.101v1.43h2.051zm-2.601 1.535c1.335 0 2.273.996 2.285 2.414-.012 1.43-.95 2.437-2.285 2.437-1.313 0-2.286-1.008-2.274-2.437-.012-1.418.961-2.414 2.274-2.414zm0 .925c-.762 0-1.29.621-1.29 1.489 0 .89.528 1.488 1.29 1.488.75 0 1.3-.598 1.3-1.488 0-.867-.55-1.489-1.3-1.489zm6.398-4.195v10.5h-1.055v-5.215h-1.207v4.723h-1.054V10.73h1.054v4.137h1.207v-4.37h1.055zm13.887 5.918v.902h-4.266v3.668h-1.09v-3.668h-4.219v-.902h9.575zm-.903-5.297v.89h-3.246c.018 1.302 1.635 2.462 3.621 2.731l-.41.88c-1.722-.27-3.211-1.12-3.844-2.321-.65 1.201-2.132 2.05-3.832 2.32l-.421-.879c1.962-.27 3.58-1.43 3.621-2.73h-3.27v-.89h7.781zm4.899 2.25c0 1.676.703 3.469 2.109 4.324l-.621.856c-.984-.592-1.652-1.64-2.004-2.86-.392 1.336-1.113 2.473-2.133 3.094l-.691-.832c1.488-.89 2.262-2.742 2.262-4.535v-1.957h1.078v1.91zm5.836-2.87v10.5h-1.067v-10.5h1.067zm-2.18.198v9.785h-1.055v-5.367h-1.629v-.925h1.629v-3.493h1.055zm13.125 8.063v.926h-9.609v-.926h2.297v-2.742c-.862-.475-1.383-1.23-1.383-2.168 0-1.653 1.617-2.743 3.867-2.743 2.262 0 3.879 1.09 3.879 2.743 0 .925-.504 1.67-1.348 2.144v2.766h2.297zm-4.828-6.762c-1.652 0-2.789.715-2.789 1.852 0 1.125 1.137 1.863 2.789 1.863 1.641 0 2.801-.738 2.801-1.863 0-1.137-1.16-1.852-2.801-1.852zm-1.383 6.762h2.789v-2.344a5.612 5.612 0 0 1-1.406.164c-.492 0-.961-.053-1.383-.152v2.332zm8.906-7.242-.105 6.035h-1.16l-.106-6.035h1.371zm-.679 8.566c-.457 0-.844-.375-.832-.832-.012-.457.375-.832.832-.832.445 0 .832.375.832.832a.843.843 0 0 1-.832.832z" fill="#fff"/>
    <path d="M173 24h31v1h-31v-1z" fill="#33FFF1"/>
    <defs>
        <linearGradient id="b0w9g7gdqa" x1="0" y1="32" x2="360" y2="32" gradientUnits="userSpaceOnUse">
            <stop stop-color="#191919"/>
            <stop offset=".207" stop-color="#303030"/>
            <stop offset=".805" stop-color="#303030"/>
            <stop offset="1" stop-color="#191919"/>
        </linearGradient>
    </defs>
</svg>
