<svg width="360" height="491" viewBox="0 0 360 491" fill="none" xmlns="http://www.w3.org/2000/svg">
    <g clip-path="url(#ivol4l6ewa)">
        <path fill="#fff" d="M0 0h360v491H0z"/>
        <path fill="#191919" d="M0 0h360v491H0z"/>
        <path fill="#555" d="M282 0h78v491h-78zM0 0h261v115H0zM0 135h73.64L91 221H0v-86zM0 240h165.934L200 393H0V240zM0 221h114v19H0zM0 393h149v98H0zM149 457h113v34H149z"/>
        <path fill="#333" d="M149 393h51v44h-51z"/>
        <path opacity=".5" fill="#000" d="M186.626 135.828h75.092v85.031h-75.092z"/>
        <path fill="#333" d="M186.626 135.828h75.092v37.546h-75.092zM208.712 188.313a5 5 0 0 1 5-5h20.92a5 5 0 0 1 5 5v32.546h-30.92v-32.546zM73 135h35v32H80.292L73 135z"/>
        <path d="M216.442 372.147h45.276v22.086h-40.859l-4.417-22.086z" fill="#0D0D0D"/>
        <path d="M220.859 394.233h40.859v44.172h-40.859v-44.172z" fill="#333"/>
        <path fill="#555" d="M108 135h57v32h-57zM83 187h83v53H90.433L83 187z"/>
        <path fill="#777" d="M166 0h.5v115h-.5zM260.5 0h.5v115h-.5zM281.5 0h.5v491h-.5zM0 115h261v.5H0zM0 135h73.5v.5H0zM0 219h166v.5H0zM0 330h186v.5H0zM0 393h200v.5H0zM149 457h113v.5H149zM282 351h78v.5h-78zM282 293h78v.5h-78zM282 257h78v.5h-78zM282 220h78v.5h-78zM282 114h78v.5h-78z"/>
        <path fill="#777" d="M149 393h-.5v98h.5zM262 457h-.5v34h.5zM84 187h82v.5H84zM108 135h57v.5h-57zM108 166.5h57v.5h-57z"/>
        <path fill="#777" d="M165.5 187h.5v53h-.5zM84 187h.5v32H84zM108 135h.5v32h-.5zM164.5 135h.5v32h-.5z"/>
        <path d="M186.626 240.736h75.092V352.27h-50.246l-24.846-111.534z" fill="#0D0D0D"/>
        <path d="M186.626 240.736h75.092v35.338h-67.362l-7.73-35.338z" fill="#333"/>
        <path opacity=".7" d="M62.7 69.281c-.008.93 1.133 1.805 2.508 1.985l-.29.609c-1.144-.184-2.152-.777-2.601-1.602-.461.829-1.465 1.418-2.602 1.602l-.297-.61c1.376-.18 2.5-1.046 2.508-1.984v-.383h.774v.383zm2.797 3.281v.61h-2.844v2.492h-.727v-2.492h-2.812v-.61h6.383zm3.015-2.851c0 .984.633 1.86 1.696 2.203l-.407.578a2.776 2.776 0 0 1-1.64-1.515 2.903 2.903 0 0 1-1.758 1.726l-.399-.594c1.118-.382 1.766-1.312 1.774-2.367v-.687h.734v.656zm3.352-1.047v4.133h-.742v-2.102h-1.477v-.61h1.477v-1.42h.742zm-2.344 4.328c1.469 0 2.367.485 2.367 1.336 0 .844-.898 1.328-2.367 1.32-1.469.008-2.375-.476-2.367-1.32-.008-.851.898-1.336 2.367-1.336zm0 .578c-1.023 0-1.633.274-1.633.758 0 .469.61.734 1.633.734 1.023 0 1.633-.265 1.633-.734 0-.484-.61-.758-1.633-.758zm5.086-4.367c.84 0 1.477.566 1.594 1.43h.648v-1.844h.695v4.898h-.695V71.25h-.656c-.133.832-.762 1.39-1.586 1.383-.938.008-1.61-.703-1.602-1.711-.007-1.024.664-1.719 1.602-1.719zm0 .633c-.547 0-.938.437-.938 1.086 0 .648.391 1.078.938 1.078.54 0 .938-.43.945-1.078-.008-.649-.406-1.086-.945-1.086zm4.305-1.172v5.234h-.703v-5.234h.703zm.203 6.25v.602H74.27v-2.297h.734v1.695h4.11zm3.32-4.187c0 1.171.766 2.382 1.844 2.843l-.406.578c-.825-.363-1.48-1.132-1.805-2.07-.324 1-.984 1.852-1.797 2.25l-.43-.586c1.055-.492 1.836-1.812 1.844-3.015v-.743h-1.601v-.617h3.945v.617h-1.594v.743zm3.219-2.063v7h-.742v-7h.742zm6.93 0v7h-.743v-7h.743zm-4.649.68v3.898a16.55 16.55 0 0 0 3.219-.32l.101.625a17.23 17.23 0 0 1-3.468.336H87.2v-4.54h.734zm7.649-.156c.949 0 1.644.804 1.757 2.101h1.446v-2.625h.734v7.016h-.734v-3.79h-1.438c-.082 1.364-.793 2.212-1.765 2.212-1.047 0-1.782-.954-1.774-2.461-.008-1.5.727-2.454 1.774-2.454zm0 .664c-.633 0-1.07.687-1.07 1.789 0 1.109.437 1.796 1.07 1.796.632 0 1.07-.687 1.07-1.796 0-1.102-.438-1.79-1.07-1.79zm10.82-1.18v4.289h-.742v-4.29h.742zm-2.235.43v1.984h-2.476v.875c1.223-.012 2.125-.047 3.187-.211l.094.602c-1.14.187-2.101.218-3.422.218h-.586v-2.054h2.469v-.805h-2.484v-.61h3.218zm-.101 3.992c1.476 0 2.383.46 2.383 1.281 0 .805-.907 1.281-2.383 1.273-1.484.008-2.383-.468-2.383-1.273 0-.82.899-1.281 2.383-1.281zm0 .586c-1.039 0-1.649.25-1.649.695 0 .445.61.688 1.649.688 1.039 0 1.641-.243 1.641-.688 0-.445-.602-.695-1.641-.695z" fill="#fff"/>
        <rect opacity=".2" x="65.153" y="44.172" width="31" height="12" rx="6" fill="#000"/>
        <path d="m71.259 53.172 2.312-4.54v-.038h-2.703v-1.078h4.086v1.086l-2.32 4.57h-1.375zm7.023-5.656v5.656h-1.336v-4.406h-.031l-1.273.78v-1.155l1.398-.875h1.242zm1.477 5.656 2.312-4.54v-.038h-2.703v-1.078h4.086v1.086l-2.32 4.57h-1.375zm10.469-5.563v.89h-5.993v-.89h2.43v-.797h1.125v.797h2.438zm.296 4.719v.898H83.97v-.898h2.695v-.773c-1.2-.114-1.922-.614-1.922-1.391 0-.883.953-1.406 2.485-1.406 1.507 0 2.468.523 2.468 1.406 0 .773-.726 1.277-1.906 1.39v.774h2.734zm-3.296-2.695c-.883 0-1.32.156-1.32.531 0 .383.437.531 1.32.531.859 0 1.312-.148 1.312-.531 0-.375-.453-.531-1.313-.531z" fill="#fff"/>
        <path opacity=".7" d="M24.448 184.081v4.187h-.704v-4.187h.704zm-1.368.133v4h-.695v-1.711h-.656c-.125.828-.758 1.367-1.586 1.367-.938 0-1.61-.68-1.602-1.68-.008-.984.664-1.679 1.602-1.679.836 0 1.469.562 1.594 1.39h.648v-1.687h.695zm1.368 4.367v2.508h-.735v-1.914H19.69v-.594h4.758zm-4.305-3.43c-.547 0-.938.422-.938 1.039 0 .633.39 1.063.938 1.055.539.008.937-.422.945-1.055-.008-.617-.406-1.039-.945-1.039zm7.68.711c-.008 1.242.71 2.508 1.757 3.016l-.46.594c-.762-.395-1.352-1.18-1.657-2.118-.316 1-.93 1.836-1.726 2.25l-.461-.601c1.078-.516 1.804-1.86 1.804-3.141v-1.195h.743v1.195zm3.023-1.781v2.789h1.125v.633h-1.125v3.578h-.742v-7h.742zm7.867 5.539v.625h-6.406v-.625h2.82v-1.227h-2.039v-2.226h4.11v-.984h-4.126v-.61h4.86v2.188h-4.11v1.023h4.274v.609h-2.234v1.227h2.851zm6.914-.023v.617h-6.406v-.617h2.82v-1.438h-2.086v-3.601h.742v1.203h3.438v-1.203h.734v3.601h-2.093v1.438h2.851zm-4.93-2.039h3.438v-1.196h-3.438v1.196zm11.243 1.101v2.422h-.742v-1.82h-4v-.602h4.742zm0-4.578v4.266h-.742v-4.266h.742zm-2.04.469v.601h-2.617v.805h2.422v.578h-2.422v.844c1.403-.004 2.22-.039 3.164-.188l.079.594c-1.016.164-1.883.195-3.414.188h-.579v-3.422h3.368zm6.704.523c0 1.141 1.218 2.219 2.562 2.461l-.343.617c-1.118-.242-2.149-.976-2.602-1.961-.461.977-1.488 1.711-2.61 1.961l-.328-.617c1.329-.25 2.54-1.32 2.54-2.461v-.531h.78v.531zm2.851 4.469v.617H53.05v-.617h6.406z" fill="#fff"/>
        <rect opacity=".2" x="23.19" y="164.54" width="31" height="12" rx="6" fill="#000"/>
        <path d="m29.018 173.54 2.313-4.539v-.039h-2.703v-1.078h4.086v1.085l-2.32 4.571h-1.376zm7.024-5.656v5.656h-1.336v-4.406h-.031l-1.274.781v-1.156l1.399-.875h1.242zm3.508 5.734c-1.235 0-2.36-.734-2.36-2.805.008-1.875.946-3.008 2.39-3.008 1.188 0 1.993.758 2.102 1.704H40.37c-.086-.368-.39-.563-.79-.563-.718 0-1.07.648-1.07 1.68h.04c.242-.508.812-.813 1.445-.813 1.023 0 1.75.758 1.75 1.813 0 1.179-.89 1.992-2.195 1.992zm-.008-1.031a.883.883 0 0 0 .906-.922.874.874 0 0 0-.898-.914.897.897 0 0 0-.914.922c0 .507.382.914.906.914zm9-4.61v.891H42.55v-.891h2.43v-.797h1.124v.797h2.438zm.297 4.719v.898h-6.555v-.898h2.695v-.773c-1.199-.114-1.922-.614-1.922-1.391 0-.883.953-1.406 2.485-1.406 1.508 0 2.468.523 2.468 1.406 0 .773-.726 1.277-1.906 1.391v.773h2.735zm-3.297-2.695c-.883 0-1.32.156-1.32.531 0 .383.437.531 1.32.531.86 0 1.312-.148 1.312-.531 0-.375-.453-.531-1.312-.531z" fill="#fff"/>
        <path opacity=".7" d="M118.401 158.379h.537v2.505c0 .684-.43 1.079-1.079 1.079-.601 0-1.05-.337-1.05-.937h.532c.005.297.225.478.532.478.337 0 .528-.215.528-.62v-2.505zm3.179.933c-.035-.328-.323-.518-.728-.518-.435 0-.708.22-.708.523 0 .336.366.463.645.532l.341.093c.454.107 1.016.356 1.021.996-.005.595-.479 1.035-1.314 1.035-.791 0-1.289-.396-1.323-1.04h.537c.034.385.371.571.786.571.45 0 .777-.229.782-.576-.005-.308-.293-.435-.669-.532l-.42-.113c-.567-.156-.923-.444-.923-.937 0-.611.547-1.016 1.26-1.016.717 0 1.22.41 1.235.982h-.522zm4.936.664v.376h-.962v.571c.305.134.474.344.474.62 0 .503-.567.781-1.509.786-.952-.005-1.519-.283-1.519-.786 0-.283.176-.496.498-.63v-.561h-.971v-.376h3.989zm-1.997.781c.212 0 .405.015.576.039v-.444h-1.133v.439c.166-.022.354-.034.557-.034zm0 .356c-.669 0-1.05.152-1.05.43 0 .274.381.425 1.05.42.659.005 1.045-.146 1.045-.42 0-.278-.386-.43-1.045-.43zm0-3.081c.957 0 1.562.313 1.562.835 0 .513-.605.816-1.562.816-.962 0-1.563-.303-1.563-.816 0-.522.601-.835 1.563-.835zm0 .367c-.674 0-1.089.17-1.084.468-.005.293.41.459 1.084.459.669 0 1.084-.166 1.084-.459 0-.298-.415-.468-1.084-.468zm5.767-.445v1.099h.634v.39h-.634v1.06h-.464v-2.549h.464zm-2.339 2.73v.425h1.875v-.425h.464v1.592h-2.798v-1.592h.459zm0 1.22h1.875v-.434h-1.875v.434zm1.513-3.52v.371h-2.607v-.371h1.074v-.469h.464v.469h1.069zm-1.303.552c.63 0 1.059.298 1.059.766 0 .464-.429.772-1.059.767-.64.005-1.065-.303-1.065-.767 0-.468.425-.766 1.065-.766zm0 .346c-.371-.005-.62.166-.616.42-.004.259.245.425.616.425s.62-.166.625-.425c-.005-.254-.254-.425-.625-.42zm6.64-1.323v3.179h-.464v-3.179h.464zm.132 3.901v.376h-2.993v-1.42h.469v1.044h2.524zm-2.505-3.608c.659 0 1.162.449 1.162 1.084 0 .645-.503 1.089-1.162 1.089-.659 0-1.167-.444-1.167-1.089 0-.635.508-1.084 1.167-1.084zm0 .405c-.41 0-.713.279-.713.679 0 .41.303.684.713.684.401 0 .708-.274.708-.684 0-.4-.307-.679-.708-.679zm6.846-.703v4.375h-.444v-2.246h-.523v2.031h-.439v-4.077h.439v1.656h.523v-1.739h.444zm-2.451 1.157c0 .787.298 1.499.932 1.827l-.273.356c-.43-.232-.718-.64-.874-1.147-.149.576-.44 1.035-.884 1.298l-.288-.351c.64-.361.938-1.113.938-1.983v-.283h-.821v-.376h2.032v.376h-.762v.283zm6.548-.737v.469c-.005.552-.005 1.128-.161 1.963l-.455-.049c.152-.791.152-1.377.152-1.914v-.093h-2.681v-.376h3.145zm.434 2.979v.385h-3.989v-.385h.942v-1.416h.464v1.416h.63v-1.416h.454v1.416h1.499zm4.322-1.314v.376h-1.031v.508h.542v1.406h-.469v-1.04h-2.587v-.366h.576v-.508h-1.021v-.376h3.99zm-1.998-1.987c.957-.005 1.563.317 1.563.845 0 .527-.606.849-1.563.844-.957.005-1.562-.317-1.562-.844 0-.528.605-.85 1.562-.845zm0 .366c-.673-.005-1.088.176-1.084.479-.004.307.411.483 1.084.483.669 0 1.084-.176 1.084-.483 0-.303-.415-.484-1.084-.479zm-.507 2.505h1.02v-.508h-1.02v.508zm6.474-2.964v3.316h-.464v-.42h-.879v-.328h.879v-2.568h.464zm.108 3.901v.376h-3.16v-1.284h.459v.908h2.701zm-3.765-1.904c.811-.005 1.899-.014 2.832-.132l.029.332c-.373.061-.766.103-1.152.127v.855h-.464v-.83c-.425.019-.832.022-1.186.019l-.059-.371zm1.431-1.831c.639 0 1.084.308 1.084.772 0 .463-.445.761-1.084.761-.65 0-1.089-.298-1.089-.761 0-.464.439-.772 1.089-.772zm0 .347c-.391-.005-.655.161-.65.425-.005.258.259.42.65.42.376 0 .639-.162.644-.42-.005-.264-.268-.43-.644-.425zm3.173 2.095c.005-.918.264-1.685.723-2.339h.479c-.337.483-.66 1.469-.66 2.339 0 .874.323 1.855.66 2.343h-.479c-.459-.654-.718-1.421-.723-2.343zm5.513-.147v.376h-1.777v1.528h-.454v-1.528h-1.758v-.376h3.989zm-.376-2.207v.371h-1.352c.007.542.681 1.025 1.508 1.138l-.17.366c-.718-.112-1.338-.466-1.602-.967-.271.501-.889.855-1.597.967l-.175-.366c.817-.113 1.491-.596 1.508-1.138h-1.362v-.371h3.242zm1.909 2.354c-.004.922-.263 1.689-.722 2.343h-.479c.337-.488.659-1.469.659-2.343 0-.87-.322-1.856-.659-2.339h.479c.459.654.718 1.421.722 2.339z" fill="#fff"/>
        <rect opacity=".2" x="122.368" y="141.35" width="31" height="12" rx="6" fill="#000"/>
        <path d="m128.196 150.35 2.313-4.539v-.039h-2.704v-1.078h4.086v1.085l-2.32 4.571h-1.375zm7.023-5.656v5.656h-1.335v-4.406h-.032l-1.273.781v-1.156l1.398-.875h1.242zm3.375-.079c1.235 0 2.352.735 2.352 2.782.008 1.898-.937 3.031-2.383 3.031-1.195 0-2-.75-2.109-1.719h1.32c.078.383.383.578.789.578.711 0 1.063-.648 1.071-1.695h-.04c-.25.508-.812.805-1.453.805-1.015 0-1.742-.758-1.742-1.797-.008-1.172.883-1.985 2.195-1.985zm.008 1.024a.896.896 0 0 0-.914.914c.008.516.375.914.906.914a.91.91 0 0 0 .915-.914c-.008-.5-.391-.914-.907-.914zm9.117-.852v.891h-5.992v-.891h2.43v-.797h1.125v.797h2.437zm.297 4.719v.898h-6.554v-.898h2.695v-.773c-1.199-.114-1.922-.614-1.922-1.391 0-.883.953-1.406 2.484-1.406 1.508 0 2.469.523 2.469 1.406 0 .773-.726 1.277-1.906 1.391v.773h2.734zm-3.297-2.695c-.882 0-1.32.156-1.32.531 0 .383.438.531 1.32.531.86 0 1.313-.148 1.313-.531 0-.375-.453-.531-1.313-.531z" fill="#fff"/>
        <path opacity=".7" d="M115.97 213.816v-3.535h.537v1.533h1.758v-1.533h.537v3.535h-.537v-1.543h-1.758v1.543h-.537zm4.702 0h-1.147v-3.535h1.181c1.04 0 1.665.664 1.665 1.763 0 1.103-.625 1.772-1.699 1.772zm-.61-.469h.581c.801 0 1.196-.469 1.196-1.303 0-.831-.395-1.294-1.167-1.294h-.61v2.597zm6.343-3.486v3.179h-.464v-3.179h.464zm.131 3.901v.376h-2.993v-1.421h.469v1.045h2.524zm-2.505-3.608c.66 0 1.163.449 1.163 1.084 0 .644-.503 1.089-1.163 1.089-.659 0-1.167-.445-1.167-1.089 0-.635.508-1.084 1.167-1.084zm0 .405c-.41 0-.712.278-.712.679 0 .41.302.683.712.683.401 0 .708-.273.708-.683 0-.401-.307-.679-.708-.679zm3.653-.283v1.05h.84v-1.05h.424v1.221h.582v-1.553h.444v4.077h-.444v-2.139h-.582v1.27h-1.704v-2.876h.44zm0 2.49h.84v-1.064h-.84v1.064zm3.179-2.91v4.375h-.445v-4.375h.445zm2.778.62c0 .713.762 1.387 1.601 1.538l-.214.386c-.699-.151-1.343-.61-1.626-1.226-.289.611-.931 1.07-1.631 1.226l-.205-.386c.83-.156 1.587-.825 1.587-1.538v-.332h.488v.332zm1.782 2.793v.386h-4.004v-.386h4.004zm3.867-1.084v.371h-3.047v-2.339h3.003v.376h-2.534v.591h2.442v.366h-2.442v.635h2.578zm.454 1.113v.381h-4.004v-.381h4.004z" fill="#fff"/>
        <rect opacity=".2" x="112.534" y="193.252" width="31" height="12" rx="6" fill="#000"/>
        <path d="m118.424 202.252 2.313-4.54v-.039h-2.703v-1.078h4.086v1.086l-2.321 4.571h-1.375zm7.024-5.657v5.657h-1.336v-4.407h-.031l-1.274.782v-1.157l1.399-.875h1.242zm3.406 5.735c-1.234 0-2.133-.719-2.148-1.727h1.296c.016.422.391.695.852.695.531 0 .914-.375.906-.921.008-.555-.383-.93-.922-.93-.406 0-.671.156-.828.461h-1.195l.281-3.313h3.617v1.078h-2.523l-.133 1.352h.039c.196-.313.633-.531 1.164-.531 1.032 0 1.789.765 1.789 1.843 0 1.165-.882 1.993-2.195 1.993zm8.969-5.641v.891h-5.992v-.891h2.429v-.797h1.125v.797h2.438zm.297 4.719v.898h-6.555v-.898h2.695v-.774c-1.199-.113-1.922-.613-1.922-1.39 0-.883.954-1.407 2.485-1.407 1.508 0 2.469.524 2.469 1.407 0 .773-.727 1.277-1.907 1.39v.774h2.735zm-3.297-2.696c-.883 0-1.321.157-1.321.532 0 .383.438.531 1.321.531.859 0 1.312-.148 1.312-.531 0-.375-.453-.532-1.312-.532z" fill="#fff"/>
        <path opacity=".7" d="M68.805 281.268v5.125h-.743v-5.125h.743zm.21 6.242v.601h-4.788v-2.203h.75v1.602h4.038zm-3.468-5.164c-.008 1.023.648 1.961 1.726 2.336l-.382.593a2.932 2.932 0 0 1-1.72-1.656c-.308.813-.913 1.465-1.734 1.781l-.398-.585a2.636 2.636 0 0 0 1.75-2.469v-.696h.758v.696zm6.305-.68c.581-.004 1.078.215 1.406.578h1.75v-.984h.742v4.133h-.742v-.946H73.25c-.324.36-.82.575-1.398.571-1.055.007-1.837-.696-1.837-1.672 0-.985.782-1.688 1.837-1.68zm0 .641c-.657-.008-1.126.414-1.126 1.039 0 .609.47 1.047 1.126 1.039.64.008 1.109-.43 1.109-1.039 0-.625-.469-1.047-1.11-1.039zm1.554 3.242c1.453 0 2.367.492 2.367 1.351 0 .852-.914 1.352-2.367 1.344-1.46.008-2.375-.492-2.367-1.344-.008-.859.906-1.351 2.367-1.351zm0 .57c-1.023 0-1.648.281-1.64.781-.008.485.617.758 1.64.758 1.031 0 1.64-.273 1.64-.758 0-.5-.609-.781-1.64-.781zm.188-3.281c.05.156.078.328.078.508 0 .172-.028.34-.07.492h1.406v-1h-1.414zm9.03-1.578v7.015h-.741v-7.015h.742zm-4.663.586v1.797h1.883v-1.797h.734v4.75h-3.36v-4.75h.743zm0 4.14h1.883v-1.757H77.96v1.757zm11.75-4.718v4.047h-.703v-4.047h.703zm-1.367.132v3.829h-.696v-1.618h-.656c-.121.813-.754 1.344-1.586 1.336-.937.008-1.61-.656-1.601-1.632-.008-.961.664-1.625 1.601-1.633.824.008 1.45.527 1.586 1.312h.656V281.4h.696zm1.367 4.235v2.539h-4.68v-2.539h4.68zm-3.938.586v1.351h3.211v-1.351h-3.21zm-.367-3.93c-.547 0-.937.414-.937 1.024 0 .609.39 1.023.937 1.031.54-.008.938-.422.945-1.031-.007-.61-.406-1.024-.945-1.024zm11.047-1.031v7.015h-.742v-7.015h.742zm-3.742.523c1.039 0 1.805.953 1.805 2.453 0 1.508-.766 2.461-1.805 2.461-1.055 0-1.813-.953-1.813-2.461 0-1.5.758-2.453 1.813-2.453zm0 .664c-.649 0-1.094.688-1.094 1.789 0 1.11.445 1.797 1.094 1.797.64 0 1.086-.687 1.086-1.797 0-1.101-.445-1.789-1.086-1.789zm5.281 2.993c.008-1.469.422-2.696 1.156-3.743h.766c-.54.774-1.055 2.352-1.055 3.743 0 1.398.516 2.968 1.055 3.75h-.766c-.734-1.047-1.148-2.274-1.156-3.75zm8.82-.235v.602h-2.843v2.445h-.727v-2.445h-2.812v-.602h6.382zm-.601-3.531v.594h-2.164c.011.867 1.09 1.64 2.414 1.82l-.274.586c-1.148-.18-2.14-.746-2.562-1.547-.434.801-1.422 1.367-2.555 1.547l-.281-.586c1.309-.18 2.387-.953 2.414-1.82h-2.18v-.594h5.188zm3.055 3.766c-.008 1.476-.422 2.703-1.157 3.75h-.765c.539-.782 1.054-2.352 1.054-3.75 0-1.391-.515-2.969-1.054-3.743h.765c.735 1.047 1.149 2.274 1.157 3.743z" fill="#fff"/>
        <rect opacity=".2" x="70.675" y="261.718" width="31" height="12" rx="6" fill="#000"/>
        <path d="m76.53 270.718 2.313-4.539v-.039H76.14v-1.078h4.086v1.086l-2.32 4.57H76.53zm7.024-5.656v5.656h-1.336v-4.406h-.032l-1.273.781v-1.156l1.398-.875h1.243zm3.39 5.734c-1.289 0-2.203-.711-2.218-1.727h1.343c.008.375.383.641.883.641s.86-.289.852-.695c.007-.407-.375-.703-.969-.703h-.547v-.954h.547c.516 0 .875-.273.875-.679 0-.383-.305-.656-.758-.656-.46 0-.828.265-.836.664h-1.281c.016-1 .906-1.704 2.125-1.704 1.21 0 2.039.696 2.031 1.618.008.632-.46 1.078-1.11 1.172v.039c.868.101 1.329.601 1.321 1.304.008.977-.937 1.68-2.258 1.68zM96 265.155v.891h-5.992v-.891h2.43v-.797h1.124v.797H96zm.297 4.719v.899H89.74v-.899h2.695v-.773c-1.199-.114-1.921-.614-1.921-1.391 0-.883.953-1.406 2.484-1.406 1.508 0 2.469.523 2.469 1.406 0 .773-.727 1.277-1.907 1.391v.773h2.735zm-3.297-2.695c-.883 0-1.32.156-1.32.531 0 .383.437.531 1.32.531.86 0 1.313-.148 1.313-.531 0-.375-.454-.531-1.313-.531z" fill="#fff"/>
        <path opacity=".7" d="M71.336 372.678c.008-1.469.422-2.696 1.156-3.742h.766c-.54.773-1.055 2.351-1.055 3.742 0 1.398.516 2.969 1.055 3.75h-.766c-.734-1.047-1.148-2.274-1.156-3.75zm8.82-.235v.602h-2.844v2.445h-.726v-2.445h-2.813v-.602h6.383zm-.602-3.531v.594H77.39c.012.867 1.09 1.641 2.415 1.82l-.274.586c-1.148-.18-2.14-.746-2.562-1.547-.434.801-1.422 1.367-2.555 1.547l-.281-.586c1.308-.179 2.386-.953 2.414-1.82h-2.18v-.594h5.188zm3.055 3.766c-.008 1.476-.422 2.703-1.156 3.75h-.766c.54-.781 1.055-2.352 1.055-3.75 0-1.391-.516-2.969-1.055-3.742h.766c.734 1.046 1.148 2.273 1.156 3.742zm6.906-4.172v3.625h-.703v-3.625h.703zm-1.367.133v3.445h-.695v-1.43h-.656c-.125.754-.75 1.258-1.586 1.258-.938 0-1.61-.633-1.602-1.539-.008-.937.664-1.547 1.602-1.539.824-.008 1.441.461 1.586 1.211h.656v-1.406h.695zm1.367 3.789v1.726h-3.937v.664h4.203v.594h-4.945V373.6h3.945v-.586h-3.96v-.586h4.694zm-4.304-3.024c-.547 0-.938.399-.938.969 0 .563.39.945.938.945.539 0 .937-.382.945-.945-.008-.57-.406-.969-.945-.969zm11.219 3.782v2.312h-.735v-1.719H91.68v-.593h4.75zm-3.18-4.157v2h-1.758v.93c.86-.008 1.504-.047 2.273-.203l.079.601c-.868.165-1.586.204-2.61.196h-.46v-2.071h1.765v-.867h-1.781v-.586h2.492zm3.18-.523v4.351h-.704v-4.351h.704zm-1.399.133v4.179h-.71v-1.961h-.806v-.601h.805v-1.617h.711zm4.914 1.64c-.008 1.282.766 2.563 1.852 3.047l-.446.586c-.804-.383-1.441-1.168-1.765-2.125-.328 1.024-.973 1.871-1.813 2.281l-.453-.625c1.102-.492 1.875-1.828 1.875-3.164v-1.195h.75v1.195zm3.227-1.781v7.016h-.742v-7.016h.742z" fill="#fff"/>
        <rect opacity=".2" x="70.675" y="348.957" width="31" height="12" rx="6" fill="#000"/>
        <path d="m76.644 357.957 2.312-4.539v-.039h-2.703v-1.078h4.086v1.086l-2.32 4.57h-1.375zm7.023-5.656v5.656h-1.336v-4.406H82.3l-1.274.781v-1.156l1.399-.875h1.242zm1.242 5.656v-.961l2.063-1.812c.476-.438.75-.727.758-1.157-.008-.468-.352-.765-.829-.765-.484 0-.804.304-.804.82H84.83c0-1.141.836-1.859 2.078-1.859 1.274 0 2.11.687 2.11 1.703 0 .648-.32 1.187-1.547 2.258l-.711.656v.039h2.328v1.078h-4.18zm10.977-5.562v.89h-5.992v-.89h2.43v-.797h1.124v.797h2.438zm.297 4.718v.899h-6.555v-.899h2.695v-.773c-1.199-.113-1.922-.613-1.922-1.391 0-.883.954-1.406 2.485-1.406 1.508 0 2.469.523 2.469 1.406 0 .774-.727 1.278-1.907 1.391v.773h2.735zm-3.297-2.695c-.883 0-1.32.156-1.32.531 0 .383.437.532 1.32.532.86 0 1.312-.149 1.312-.532 0-.375-.453-.531-1.312-.531z" fill="#fff"/>
        <path opacity=".7" d="M55.52 455.448h-1.836v-5.656h1.891c1.664 0 2.664 1.062 2.664 2.82 0 1.766-1 2.836-2.718 2.836zm-.976-.75h.93c1.28 0 1.914-.75 1.914-2.086 0-1.328-.633-2.07-1.867-2.07h-.977v4.156zm4.398-.445c0-.969.82-1.219 1.586-1.274.282-.019.918-.055 1.117-.062l-.007-.336c0-.477-.29-.758-.86-.758-.492 0-.789.226-.875.539h-.828c.078-.703.734-1.211 1.734-1.211.672 0 1.665.25 1.665 1.477v2.82h-.813v-.578h-.031c-.164.32-.555.672-1.258.672-.805 0-1.43-.461-1.43-1.289zm.813.007c0 .407.336.618.804.618.68 0 1.087-.454 1.087-.961v-.391c-.196.016-.805.059-1 .07-.547.039-.891.242-.891.664zm3.726 1.188v-4.242h.836v4.242h-.836zm.422-4.899c-.289 0-.531-.218-.531-.492 0-.273.242-.492.531-.492.282 0 .524.219.524.492 0 .274-.243.492-.524.492zm2.266-.757v5.656h-.836v-5.656h.836zm1.531 7.25c-.172 0-.336-.008-.445-.024v-.695c.094.008.258.015.375.015.258 0 .476-.023.672-.554l.101-.281-1.554-4.297h.89l1.07 3.289h.047l1.07-3.289h.9l-1.75 4.804c-.243.672-.68 1.032-1.376 1.032zm6.328-7.25 1.57 4.601h.063l1.57-4.601h.93l-2.039 5.656h-.992l-2.031-5.656h.93zm6.18 5.742c-1.25 0-2.016-.86-2.016-2.18 0-1.305.782-2.203 1.961-2.203.969 0 1.883.602 1.883 2.133v.297H79.02c.024.804.496 1.265 1.196 1.265.476 0 .781-.203.922-.461h.843c-.187.688-.843 1.149-1.773 1.149zm-1.18-2.578h2.188c0-.649-.414-1.118-1.055-1.118-.668 0-1.102.516-1.133 1.118zm5.617 4.172c-1.07 0-1.773-.477-1.851-1.266h.852c.078.398.453.594 1.007.594.664 0 1.086-.282 1.086-.946v-.836h-.055c-.148.274-.453.711-1.234.711-1 0-1.773-.75-1.773-2.101 0-1.352.757-2.133 1.781-2.133.789 0 1.078.477 1.234.742h.055v-.687h.813v4.336c0 1.086-.82 1.586-1.915 1.586zm-.007-2.43c.71 0 1.109-.524 1.109-1.399 0-.859-.39-1.437-1.11-1.437-.742 0-1.109.625-1.109 1.437 0 .829.383 1.399 1.11 1.399zm2.742-.445c0-.969.82-1.219 1.586-1.274.281-.019.918-.055 1.117-.062l-.008-.336c0-.477-.289-.758-.86-.758-.491 0-.788.226-.874.539h-.828c.078-.703.734-1.211 1.734-1.211.672 0 1.664.25 1.664 1.477v2.82H90.1v-.578h-.032c-.164.32-.554.672-1.257.672-.805 0-1.43-.461-1.43-1.289zm.812.007c0 .407.336.618.805.618.68 0 1.086-.454 1.086-.961v-.391c-.195.016-.805.059-1 .07-.547.039-.89.242-.89.664zm4.563-1.328v2.516h-.836v-4.242h.805v.695h.046c.204-.453.618-.75 1.25-.75.876 0 1.446.547 1.446 1.602v2.695h-.828v-2.594c0-.617-.336-.984-.899-.984-.57 0-.984.383-.984 1.062z" fill="#fff"/>
        <rect opacity=".2" x="57.423" y="429.571" width="31" height="12" rx="6" fill="#000"/>
        <path d="m63.45 438.571 2.313-4.54v-.039H63.06v-1.078h4.086V434l-2.32 4.571H63.45zm7.024-5.657v5.657h-1.336v-4.407h-.031l-1.273.782v-1.157l1.398-.875h1.242zm3.828 0v5.657h-1.336v-4.407h-.03l-1.274.782v-1.157l1.398-.875h1.242zm7.274.094v.891h-5.992v-.891h2.43v-.797h1.124v.797h2.438zm.297 4.719v.898h-6.555v-.898h2.695v-.774c-1.199-.113-1.922-.613-1.922-1.39 0-.883.953-1.407 2.485-1.407 1.508 0 2.468.524 2.468 1.407 0 .773-.726 1.277-1.906 1.39v.774h2.735zm-3.297-2.696c-.883 0-1.32.157-1.32.532 0 .383.437.531 1.32.531.86 0 1.312-.148 1.312-.531 0-.375-.453-.532-1.312-.532z" fill="#fff"/>
        <path opacity=".7" d="M192.363 75h-1.836v-5.656h1.891c1.664 0 2.664 1.062 2.664 2.82 0 1.766-1 2.836-2.719 2.836zm-.977-.75h.93c1.281 0 1.914-.75 1.914-2.086 0-1.328-.633-2.07-1.867-2.07h-.977v4.156zm5.672-4.898-.625 2.156h-.664l.414-2.156h.875zm.875 5.648v-5.656h.86v4.914h2.554V75h-3.414zm5.157-5.656V75h-.86v-5.656h.86zm1.648 0 1.57 4.601h.063l1.57-4.601h.93L206.832 75h-.992l-2.032-5.656h.93zM209.59 75v-5.656h3.546v.742h-2.687v1.71h2.5v.735h-2.5v1.727h2.719V75h-3.578zm8.671-4.273c0 1.109.727 2.343 1.79 2.843l-.422.578c-.785-.379-1.407-1.167-1.719-2.085-.324 1.003-.981 1.867-1.781 2.265l-.438-.586c1.063-.508 1.836-1.828 1.836-3.015v-.743h-1.578v-.617h3.836v.617h-1.524v.743zm3.016-2.063v2.773h1.125v.626h-1.125v3.601h-.742v-7h.742zm7.508 0v7h-.711V72.07h-.836v3.25h-.703v-6.523h.703v2.648h.836v-2.78h.711zm-3.922 1.852c0 1.257.477 2.398 1.492 2.921l-.437.57c-.688-.37-1.149-1.023-1.399-1.835-.238.922-.703 1.656-1.414 2.078l-.461-.563c1.024-.578 1.5-1.78 1.5-3.171v-.454h-1.312v-.601h3.25v.602h-1.219v.453zm10.586-1.852v3.602h-.734v-3.602h.734zm.008 3.938v1.75h-3.86V75h4.094v.594h-4.812v-1.805h3.843v-.602h-3.867v-.585h4.602zm-3.258-3.211c-.008.937.672 1.789 1.742 2.125l-.367.578c-.816-.266-1.43-.82-1.742-1.531a2.963 2.963 0 0 1-1.781 1.664l-.375-.586c1.093-.368 1.765-1.282 1.765-2.25v-.54h.758v.54z" fill="#fff"/>
        <rect opacity=".2" x="196.564" y="44.172" width="31" height="12" rx="6" fill="#000"/>
        <path d="m202.385 53.172 2.312-4.54v-.038h-2.703v-1.078h4.086v1.086l-2.32 4.57h-1.375zm7.023-5.656v5.656h-1.336v-4.406h-.031l-1.274.78v-1.155l1.399-.875h1.242zm3.453 5.734c-1.328 0-2.289-.688-2.289-1.61 0-.703.555-1.273 1.274-1.382v-.04c-.625-.117-1.063-.624-1.063-1.25 0-.882.875-1.53 2.078-1.53 1.188 0 2.071.648 2.071 1.53 0 .626-.454 1.133-1.063 1.25v.04c.703.11 1.273.68 1.273 1.383 0 .921-.96 1.609-2.281 1.609zm0-.984c.524 0 .883-.32.883-.766 0-.445-.375-.773-.883-.773-.515 0-.898.328-.89.773-.008.445.359.766.89.766zm0-2.454c.446 0 .766-.289.766-.703 0-.398-.32-.687-.766-.687-.461 0-.773.281-.773.687 0 .407.32.703.773.703zm9.063-2.203v.89h-5.992v-.89h2.429v-.797h1.125v.797h2.438zm.297 4.719v.898h-6.555v-.898h2.695v-.773c-1.199-.114-1.922-.614-1.922-1.391 0-.883.953-1.406 2.485-1.406 1.508 0 2.468.523 2.468 1.406 0 .773-.726 1.277-1.906 1.39v.774h2.735zm-3.297-2.695c-.883 0-1.321.156-1.321.531 0 .383.438.531 1.321.531.859 0 1.312-.148 1.312-.531 0-.375-.453-.531-1.312-.531z" fill="#fff"/>
        <path opacity=".7" d="M299.737 70h-1.836v-5.656h1.891c1.664 0 2.664 1.062 2.664 2.82 0 1.766-1 2.836-2.719 2.836zm-.976-.75h.929c1.282 0 1.915-.75 1.915-2.086 0-1.328-.633-2.07-1.868-2.07h-.976v4.156zm5.672-4.899-.625 2.157h-.664l.414-2.157h.875zm.875 5.649v-5.656h.859v4.914h2.555V70h-3.414zm5.156-5.656V70h-.859v-5.656h.859zm1.648 0 1.571 4.601h.062l1.57-4.601h.93L314.206 70h-.992l-2.031-5.656h.929zM316.964 70v-5.656h3.547v.742h-2.688v1.71h2.5v.735h-2.5v1.727h2.719V70h-3.578zm8.664-4.555c-.008 1.242.711 2.508 1.758 3.016l-.461.594c-.762-.395-1.352-1.18-1.656-2.118-.317 1-.93 1.836-1.727 2.25l-.461-.601c1.078-.516 1.805-1.86 1.805-3.14V64.25h.742v1.195zm3.023-1.781v2.789h1.125v.633h-1.125v3.578h-.742v-7h.742zm7.86 4.016v.601h-2.86v2.375h-.726v-2.375h-2.82v-.602h6.406zm-.805-3.641v2.75h-4.797v-2.75h4.797zm-4.07.594v1.578h3.328v-1.578h-3.328zm11.187-.97v3.602h-.734v-3.601h.734zm.008 3.938v1.75h-3.859V70h4.093v.594h-4.812v-1.805h3.844v-.602h-3.867v-.586h4.601zm-3.258-3.21c-.008.937.672 1.788 1.742 2.124l-.367.579c-.816-.266-1.429-.82-1.742-1.532a2.958 2.958 0 0 1-1.781 1.664l-.375-.586c1.094-.367 1.765-1.28 1.765-2.25v-.539h.758v.54z" fill="#fff"/>
        <rect opacity=".2" x="305.681" y="44.172" width="31" height="12" rx="6" fill="#000"/>
        <path d="m311.458 53.172 2.313-4.54v-.038h-2.703v-1.079h4.086v1.086l-2.321 4.57h-1.375zm6.625.078c-1.468 0-2.367-1.055-2.367-2.906 0-1.852.899-2.907 2.367-2.907 1.469 0 2.368 1.055 2.368 2.907 0 1.859-.899 2.906-2.368 2.906zm0-1.086c.602 0 1-.57 1-1.82 0-1.235-.398-1.829-1-1.829-.601 0-.992.594-1 1.829-.007 1.25.399 1.82 1 1.82zm5.727-4.649v5.657h-1.336v-4.407h-.031l-1.274.782V48.39l1.399-.875h1.242zm7.273.094v.89h-5.992v-.89h2.43v-.797h1.125v.797h2.437zm.297 4.719v.898h-6.554v-.898h2.695v-.774c-1.199-.113-1.922-.613-1.922-1.39 0-.883.953-1.406 2.484-1.406 1.508 0 2.469.523 2.469 1.406 0 .773-.726 1.277-1.906 1.39v.774h2.734zm-3.297-2.695c-.882 0-1.32.156-1.32.53 0 .384.438.532 1.32.532.86 0 1.313-.148 1.313-.531 0-.375-.453-.531-1.313-.531z" fill="#fff"/>
        <path opacity=".7" d="M312.663 174.666c1.047 0 1.79.953 1.797 2.453-.007 1.508-.75 2.461-1.797 2.461-1.046 0-1.796-.953-1.789-2.461-.007-1.5.743-2.453 1.789-2.453zm0 .664c-.64 0-1.078.687-1.078 1.789 0 1.109.438 1.797 1.078 1.797.649 0 1.086-.688 1.086-1.797 0-1.102-.437-1.789-1.086-1.789zm3.579-1.188v2.743h1.125v.625h-1.125v3.632h-.743v-7h.743zm7.312.008v6.992h-.75v-1.671h-1.547v-.563h1.547v-4.758h.75zm-5.883 3.641c1.328-.008 3.094-.016 4.625-.227l.039.547a17.67 17.67 0 0 1-2.031.227v2.586h-.742v-2.547c-.641.027-1.25.031-1.789.031l-.102-.617zm2.305-3.32c1.031 0 1.773.57 1.773 1.398 0 .844-.742 1.391-1.773 1.391-1.055 0-1.789-.547-1.789-1.391 0-.828.734-1.398 1.789-1.398zm0 .57c-.648 0-1.094.336-1.086.828-.008.5.438.82 1.086.82.625 0 1.07-.32 1.07-.82 0-.492-.445-.828-1.07-.828zm8.617-.383v.602h-.664v1.922c.332-.024.656-.055.969-.094l.047.554c-1.414.227-3.055.25-4.242.25l-.086-.625c.265 0 .554.004.859 0v-2.007h-.664v-.602h3.781zm1.524 3.891v2.508h-4.469v-2.508h4.469zm-3.743.586v1.32h3.008v-1.32h-3.008zm3.743-4.993v1.649h1.015v.609h-1.015v1.797h-.743v-4.055h.743zm-3.922 3.118c.328-.008.668-.02 1.008-.039v-1.961h-1.008v2z" fill="#fff"/>
        <rect opacity=".2" x="305.681" y="154.601" width="31" height="12" rx="6" fill="#000"/>
        <path d="m310.7 163.601 2.313-4.539v-.039h-2.703v-1.078h4.086v1.086l-2.321 4.57H310.7zm6.625.078c-1.468 0-2.367-1.054-2.367-2.906 0-1.851.899-2.906 2.367-2.906 1.469 0 2.368 1.055 2.368 2.906 0 1.859-.899 2.906-2.368 2.906zm0-1.086c.602 0 1-.57 1-1.82 0-1.234-.398-1.828-1-1.828-.601 0-.992.594-1 1.828-.007 1.25.399 1.82 1 1.82zm3.063.055v-1.039l2.344-3.664h1.679v3.656h.688v1.047h-.688v.953h-1.273v-.953h-2.75zm1.328-1.047h1.445v-2.242h-.046l-1.399 2.195v.047zm10.125-3.562v.89h-5.992v-.89h2.43v-.797h1.125v.797h2.437zm.297 4.718v.899h-6.555v-.899h2.696v-.773c-1.2-.113-1.922-.613-1.922-1.391 0-.882.953-1.406 2.484-1.406 1.508 0 2.469.524 2.469 1.406 0 .774-.727 1.278-1.906 1.391v.773h2.734zm-3.297-2.695c-.883 0-1.32.156-1.32.531 0 .383.437.532 1.32.532.859 0 1.313-.149 1.313-.532 0-.375-.454-.531-1.313-.531z" fill="#fff"/>
        <path opacity=".7" d="M306.112 249.198v.609h-6.406v-.609h6.406zm-4.93-5v1.257h3.438v-1.257h.734v3.671h-4.914v-3.671h.742zm0 3.085h3.438v-1.242h-3.438v1.242zm8.149-2.82v2.492h-1.774v1.438c.762-.004 1.489-.031 2.352-.188l.062.61c-.968.172-1.765.195-2.648.203h-.484v-2.656h1.781v-1.297h-1.789v-.602h2.5zm3.297-.75v7h-.711v-7h.711zm-1.438.156v6.485h-.703v-3.563h-.828v-.601h.828v-2.321h.703zm8.149-.148v5.086h-.743v-5.086h.743zm.211 6.242v.602h-4.79v-2.274h.75v1.672h4.04zm-4.008-5.773c1.054 0 1.859.718 1.859 1.734 0 1.031-.805 1.742-1.859 1.742-1.055 0-1.867-.711-1.867-1.742 0-1.016.812-1.734 1.867-1.734zm0 .648c-.657 0-1.141.445-1.141 1.086 0 .656.484 1.094 1.141 1.094.64 0 1.133-.438 1.133-1.094 0-.641-.493-1.086-1.133-1.086zm8.57-.734c0 1.812-.992 3.101-3.203 3.781l-.297-.602c1.094-.316 1.82-.781 2.25-1.359l-2.156.164-.117-.601 2.57-.11c.086-.211.137-.437.164-.672h-2.383v-.601h3.172zm2.172-.383v4.016h-.742v-1.594h-1.453v-.61h1.453v-1.812h.742zm0 4.375v2.531h-4.578v-2.531h4.578zm-3.852.594v1.336h3.118v-1.336h-3.118zm8.993-4.282v.61h-.766v3.289c.332-.02.656-.051.969-.086l.047.547c-1.43.226-3.071.258-4.282.258l-.078-.618.891-.015v-3.375h-.68v-.61h3.899zm1.773-.695v7h-.734v-3.781h-1.266v-.609h1.266v-2.61h.734zm-4.266 4.672c.332-.008.676-.02 1.016-.039v-3.328h-1.016v3.367zm11.157-4.672v7h-.743v-7h.743zm-4.649.68v3.898c1.02-.008 2.094-.09 3.219-.32l.101.625c-1.242.25-2.367.336-3.468.336h-.586v-4.539h.734z" fill="#fff"/>
        <rect opacity=".2" x="305.681" y="226.38" width="31" height="12" rx="6" fill="#000"/>
        <path d="m310.7 235.38 2.313-4.539v-.039h-2.703v-1.078h4.086v1.086l-2.321 4.57H310.7zm6.625.078c-1.468 0-2.367-1.054-2.367-2.906 0-1.851.899-2.906 2.367-2.906 1.469 0 2.368 1.055 2.368 2.906 0 1.86-.899 2.906-2.368 2.906zm0-1.085c.602 0 1-.571 1-1.821 0-1.234-.398-1.828-1-1.828-.601 0-.992.594-1 1.828-.007 1.25.399 1.821 1 1.821zm3.063.054v-1.039l2.344-3.664h1.679v3.656h.688v1.047h-.688v.953h-1.273v-.953h-2.75zm1.328-1.047h1.445v-2.242h-.046l-1.399 2.195v.047zm10.125-3.562v.89h-5.992v-.89h2.43v-.797h1.125v.797h2.437zm.297 4.719v.898h-6.555v-.898h2.696v-.774c-1.2-.113-1.922-.613-1.922-1.39 0-.883.953-1.407 2.484-1.407 1.508 0 2.469.524 2.469 1.407 0 .773-.727 1.277-1.906 1.39v.774h2.734zm-3.297-2.696c-.883 0-1.32.157-1.32.532 0 .382.437.531 1.32.531.859 0 1.313-.149 1.313-.531 0-.375-.454-.532-1.313-.532z" fill="#fff"/>
        <path opacity=".7" d="M294.989 332.924c.008-1.469.422-2.696 1.157-3.743h.765c-.539.774-1.054 2.352-1.054 3.743 0 1.398.515 2.968 1.054 3.75h-.765c-.735-1.047-1.149-2.274-1.157-3.75zm8.821-.235v.602h-2.844v2.445h-.727v-2.445h-2.812v-.602h6.383zm-.602-3.531v.594h-2.164c.012.867 1.09 1.64 2.414 1.82l-.273.586c-1.149-.18-2.141-.746-2.563-1.547-.433.801-1.422 1.367-2.555 1.547l-.281-.586c1.309-.18 2.387-.953 2.414-1.82h-2.179v-.594h5.187zm3.055 3.766c-.008 1.476-.422 2.703-1.156 3.75h-.766c.539-.782 1.055-2.352 1.055-3.75 0-1.391-.516-2.969-1.055-3.743h.766c.734 1.047 1.148 2.274 1.156 3.743zm6.609-.86v.61h-4.875v-3.305h4.813v.609h-4.078v2.086h4.14zm.735 2.141v.617H307.2v-.617h6.407zm6.312-5.453v4.148h-.742v-4.148h.742zm-2.234.414v1.969h-2.477v.843c1.223.004 2.125-.039 3.188-.211l.093.61c-1.14.179-2.101.218-3.422.211h-.585v-2.032h2.468v-.796h-2.484v-.594h3.219zm2.234 4.086v2.406h-4.602v-2.406h4.602zm-3.867.593v1.211h3.14v-1.211h-3.14zm10.773-5.101v7.016h-.742v-7.016h.742zm-2 .648v.618h-2.601v3.398c1.328-.004 2.175-.039 3.164-.219l.078.617c-1.047.188-1.961.235-3.414.235h-.578v-4.649h3.351zm4.781-.109c.84 0 1.477.566 1.594 1.43h.649v-1.844h.695v4.898h-.695v-2.437h-.657c-.132.832-.761 1.39-1.586 1.383-.937.007-1.609-.703-1.601-1.711-.008-1.024.664-1.719 1.601-1.719zm0 .633c-.546 0-.937.437-.937 1.086 0 .648.391 1.078.937 1.078.54 0 .938-.43.946-1.078-.008-.649-.406-1.086-.946-1.086zm4.305-1.172v5.234h-.703v-5.234h.703zm.203 6.25v.601h-4.843v-2.296h.734v1.695h4.109zm6.766-6.25v7h-.711v-7h.711zm-1.422.133v6.523h-.711v-3.375h-.789c-.062 1.367-.648 2.219-1.516 2.211-.914.008-1.507-.953-1.507-2.469 0-1.515.593-2.468 1.507-2.461.852-.007 1.43.801 1.516 2.118h.789v-2.547h.711zm-3.016 1.125c-.507 0-.82.648-.82 1.765 0 1.118.313 1.766.82 1.766.516 0 .836-.648.836-1.766 0-1.117-.32-1.765-.836-1.765zm8.883-.266c0 1.141 1.219 2.219 2.563 2.461l-.344.617c-1.117-.242-2.148-.976-2.602-1.961-.461.977-1.488 1.711-2.609 1.961l-.328-.617c1.328-.25 2.539-1.32 2.539-2.461v-.531h.781v.531zm2.852 4.469v.617h-6.406v-.617h6.406z" fill="#fff"/>
        <rect opacity=".2" x="305.681" y="309.203" width="31" height="12" rx="6" fill="#000"/>
        <path d="m310.751 318.203 2.313-4.54v-.039h-2.703v-1.078h4.086v1.086l-2.321 4.571h-1.375zm6.625.078c-1.468 0-2.367-1.055-2.367-2.907 0-1.851.899-2.906 2.367-2.906 1.469 0 2.368 1.055 2.368 2.906 0 1.86-.899 2.907-2.368 2.907zm0-1.086c.602 0 1-.571 1-1.821 0-1.234-.398-1.828-1-1.828-.601 0-.992.594-1 1.828-.007 1.25.399 1.821 1 1.821zm5.352 1.086c-1.328 0-2.289-.688-2.289-1.61 0-.703.555-1.273 1.273-1.383v-.039c-.625-.117-1.062-.625-1.062-1.25 0-.882.875-1.531 2.078-1.531 1.187 0 2.07.649 2.07 1.531 0 .625-.453 1.133-1.062 1.25v.039c.703.11 1.273.68 1.273 1.383 0 .922-.961 1.61-2.281 1.61zm0-.985c.523 0 .883-.32.883-.765 0-.446-.375-.774-.883-.774-.516 0-.899.328-.891.774-.008.445.36.765.891.765zm0-2.453c.445 0 .766-.289.766-.703 0-.398-.321-.687-.766-.687-.461 0-.774.281-.774.687s.321.703.774.703zm9.062-2.203v.891h-5.992v-.891h2.43v-.797h1.125v.797h2.437zm.297 4.719v.898h-6.554v-.898h2.695v-.774c-1.199-.113-1.922-.613-1.922-1.39 0-.883.953-1.407 2.484-1.407 1.508 0 2.469.524 2.469 1.407 0 .773-.726 1.277-1.906 1.39v.774h2.734zm-3.297-2.696c-.882 0-1.32.157-1.32.532 0 .383.438.531 1.32.531.86 0 1.313-.148 1.313-.531 0-.375-.453-.532-1.313-.532z" fill="#fff"/>
        <path opacity=".7" d="M298.428 426.789c.008-1.469.422-2.696 1.156-3.743h.766c-.539.774-1.055 2.352-1.055 3.743 0 1.398.516 2.968 1.055 3.75h-.766c-.734-1.047-1.148-2.274-1.156-3.75zm8.82-.235v.602h-2.844v2.445h-.726v-2.445h-2.813v-.602h6.383zm-.602-3.531v.594h-2.164c.012.867 1.09 1.64 2.414 1.82l-.273.586c-1.148-.18-2.141-.746-2.562-1.547-.434.801-1.422 1.367-2.555 1.547l-.281-.586c1.308-.18 2.386-.953 2.414-1.82h-2.18v-.594h5.187zm3.055 3.766c-.008 1.476-.422 2.703-1.156 3.75h-.766c.539-.782 1.055-2.352 1.055-3.75 0-1.391-.516-2.969-1.055-3.743h.766c.734 1.047 1.148 2.274 1.156 3.743zm2.016-3.782v1.055h1.75v-1.055h.734v1.336h1.531v-1.734h.743v4.055h-.743v-1.704h-1.531v1.344h-3.226v-3.297h.742zm0 2.703h1.75v-1.062h-1.75v1.062zm4.758 1.282v2.531h-4.618v-2.531h4.618zm-3.883.593v1.336h3.156v-1.336h-3.156zm10.797-4.968v5.156h-.743v-2.43h-1.453v-.617h1.453v-2.109h.743zm-2.149.523c-.008 1.828-1.265 3.203-3.273 3.852l-.313-.594c1.559-.504 2.617-1.457 2.774-2.641h-2.414v-.617h3.226zm2.328 5.719v.601h-4.687v-2.218h.75v1.617h3.937zm7.282-2.75v.594h-2.829v.734h2.047v2.156h-.75v-1.554h-4.14v-.602h2.109v-.734h-2.82v-.594h6.383zm-2.829-3.524v.696h2.188v.586h-2.141c.071.695 1.032 1.207 2.43 1.336l-.234.554c-1.203-.109-2.18-.511-2.61-1.172-.433.661-1.41 1.063-2.609 1.172l-.234-.554c1.39-.129 2.351-.641 2.437-1.336h-2.141v-.586h2.18v-.696h.734zm6.915 2.516v.945h2.828v.61h-6.383v-.61h2.82v-.945h.735zm-.368 2.063c1.516 0 2.414.429 2.414 1.218 0 .782-.898 1.219-2.414 1.211-1.523.008-2.429-.429-2.429-1.211 0-.789.906-1.218 2.429-1.218zm0 .57c-1.078 0-1.679.226-1.679.648 0 .422.601.649 1.679.649 1.063 0 1.672-.227 1.672-.649 0-.422-.609-.648-1.672-.648zm2.625-4.805v.594h-2.125c.106.668 1.098 1.234 2.368 1.359l-.266.586c-1.219-.14-2.219-.64-2.602-1.383-.382.743-1.382 1.243-2.593 1.383l-.266-.586c1.262-.125 2.254-.683 2.359-1.359h-2.101v-.594h5.226zm6.602-.32v1.758h1.016v.625h-1.016v1.695h-.742v-4.078h.742zm-3.742 4.367v.68h3v-.68h.742v2.547h-4.477v-2.547h.735zm0 1.953h3v-.695h-3v.695zm2.422-5.633v.594h-4.172v-.594h1.718v-.75h.743v.75h1.711zm-2.086.883c1.007 0 1.695.477 1.695 1.227 0 .742-.688 1.234-1.695 1.226-1.024.008-1.703-.484-1.703-1.226 0-.75.679-1.227 1.703-1.227zm0 .555c-.594-.008-.993.266-.985.672-.008.414.391.679.985.679.593 0 .992-.265 1-.679-.008-.406-.407-.68-1-.672zm-34.664 7.883v5.156h-.743v-2.43h-1.453v-.617h1.453v-2.109h.743zm-2.149.523c-.008 1.828-1.265 3.203-3.273 3.852l-.313-.594c1.559-.504 2.617-1.457 2.774-2.641h-2.414v-.617h3.226zm2.328 5.719v.601h-4.687v-2.218h.75v1.617h3.937zm7.282-2.75v.594h-2.829v.734h2.047v2.156h-.75v-1.554h-4.14v-.602h2.109v-.734h-2.82v-.594h6.383zm-2.829-3.524v.696h2.188v.586h-2.141c.071.695 1.032 1.207 2.43 1.336l-.234.554c-1.204-.109-2.18-.511-2.61-1.172-.433.661-1.41 1.063-2.609 1.172l-.235-.554c1.391-.129 2.352-.641 2.438-1.336h-2.141v-.586h2.18v-.696h.734zm5.789 1.805c-.007 1.242.711 2.508 1.758 3.016l-.461.594c-.761-.395-1.351-1.18-1.656-2.118-.316 1-.93 1.836-1.726 2.25l-.461-.601c1.078-.516 1.804-1.86 1.804-3.141v-1.195h.742v1.195zm3.024-1.781v2.789h1.125v.633h-1.125v3.578h-.742v-7h.742zm5.844 1.781c-.008 1.242.711 2.508 1.757 3.016l-.46.594c-.762-.395-1.352-1.18-1.657-2.118-.316 1-.929 1.836-1.726 2.25l-.461-.601c1.078-.516 1.804-1.86 1.804-3.141v-1.195h.743v1.195zm3.023-1.781v2.789h1.125v.633h-1.125v3.578h-.742v-7h.742zm7.859 4.016v.601h-2.859v2.375h-.726v-2.375h-2.821v-.601h6.406zm-.804-3.641v2.75h-4.797v-2.75h4.797zm-4.071.594v1.578h3.329v-1.578h-3.329zm11.797 4.531v.609h-6.406v-.609h2.805v-1.664h.734v1.664h2.867zm-2.851-4.524c0 1.11 1.219 2.149 2.57 2.375l-.32.61c-1.133-.227-2.176-.926-2.641-1.891-.461.961-1.492 1.672-2.617 1.891l-.328-.61c1.344-.226 2.555-1.265 2.555-2.375v-.531h.781v.531z" fill="#fff"/>
        <rect opacity=".2" x="305.681" y="403.068" width="31" height="12" rx="6" fill="#000"/>
        <path d="m311.396 412.068 2.312-4.539v-.04h-2.703v-1.078h4.086v1.086l-2.32 4.571h-1.375zm7.023-5.657v5.657h-1.336v-4.407h-.031l-1.273.782v-1.157l1.398-.875h1.242zm3.555 5.735c-1.469 0-2.367-1.055-2.367-2.907 0-1.851.898-2.906 2.367-2.906 1.469 0 2.367 1.055 2.367 2.906 0 1.86-.898 2.907-2.367 2.907zm0-1.086c.602 0 1-.571 1-1.821 0-1.234-.398-1.828-1-1.828s-.992.594-1 1.828c-.008 1.25.398 1.821 1 1.821zm9.172-4.555v.891h-5.992v-.891h2.429v-.797h1.125v.797h2.438zm.297 4.719v.898h-6.555v-.898h2.695v-.774c-1.199-.113-1.922-.613-1.922-1.39 0-.883.954-1.406 2.485-1.406 1.508 0 2.469.523 2.469 1.406 0 .773-.727 1.277-1.907 1.39v.774h2.735zm-3.297-2.695c-.883 0-1.32.156-1.32.531 0 .383.437.531 1.32.531.859 0 1.312-.148 1.312-.531 0-.375-.453-.531-1.312-.531z" fill="#fff"/>
        <path opacity=".7" d="M292.951 286.595h-1.606v-4.949h1.654c1.456 0 2.331.93 2.331 2.468 0 1.545-.875 2.481-2.379 2.481zm-.854-.656h.813c1.121 0 1.675-.656 1.675-1.825 0-1.162-.554-1.812-1.634-1.812h-.854v3.637zm4.252.656h-.8l1.777-4.949h.868l1.785 4.949h-.8l-.451-1.305H296.8l-.451 1.305zm.67-1.934h1.49l-.732-2.113h-.034l-.724 2.113zm4.135 1.934-1.374-4.949h.793l.964 3.828h.041l1.005-3.828h.779l1.005 3.828h.041l.964-3.828h.793l-1.374 4.949h-.759l-1.039-3.698h-.041l-1.039 3.698h-.759zm9.673-2.474c0 1.579-.95 2.543-2.228 2.543-1.292 0-2.236-.964-2.236-2.543 0-1.586.944-2.543 2.236-2.543 1.278 0 2.228.957 2.228 2.543zm-.745 0c0-1.204-.636-1.853-1.483-1.853-.855 0-1.49.649-1.49 1.853 0 1.203.635 1.852 1.49 1.852.847 0 1.483-.649 1.483-1.852zm5.585-2.475v4.949h-.69l-2.509-3.616h-.041v3.616h-.752v-4.949h.697l2.509 3.623h.048v-3.623h.738zm2.475.649v-.649h3.835v.649h-1.538v4.3h-.752v-4.3h-1.545zm4.429 4.3h-.799l1.777-4.949h.868l1.784 4.949h-.799l-.452-1.305h-1.927l-.452 1.305zm.67-1.934h1.491l-.732-2.113h-.034l-.725 2.113zm4.116-3.015 1.175 1.928h.041l1.183-1.928h.868l-1.545 2.475 1.559 2.474h-.882l-1.183-1.907h-.041l-1.189 1.907h-.875l1.579-2.474-1.572-2.475h.882zm9.939 2.475c0 1.579-.95 2.543-2.228 2.543-1.292 0-2.236-.964-2.236-2.543 0-1.586.944-2.543 2.236-2.543 1.278 0 2.228.957 2.228 2.543zm-.745 0c0-1.204-.636-1.853-1.483-1.853-.855 0-1.491.649-1.491 1.853 0 1.203.636 1.852 1.491 1.852.847 0 1.483-.649 1.483-1.852zm3.302-1.238v.581h-.8v3.131h-.732v-3.131h-.574v-.581h.574v-.43c0-.663.424-1.039 1.108-1.039.178 0 .355.02.499.047v.609a2.102 2.102 0 0 0-.308-.028c-.389 0-.567.158-.567.52v.321h.8zm2.433 0v.581h-.8v3.131h-.731v-3.131h-.574v-.581h.574v-.43c0-.663.424-1.039 1.107-1.039.178 0 .356.02.499.047v.609a2.09 2.09 0 0 0-.307-.028c-.39 0-.568.158-.568.52v.321h.8zm.663 3.712v-3.712h.732v3.712h-.732zm.37-4.286c-.253 0-.465-.191-.465-.431 0-.239.212-.43.465-.43.246 0 .458.191.458.43 0 .24-.212.431-.458.431zm2.823 4.361c-1.08 0-1.737-.799-1.737-1.914 0-1.134.677-1.921 1.723-1.921.848 0 1.463.499 1.538 1.251h-.711a.794.794 0 0 0-.813-.642c-.602 0-1.005.499-1.005 1.292 0 .813.396 1.312 1.005 1.312.41 0 .724-.225.813-.629h.711c-.082.718-.649 1.251-1.524 1.251zm3.814 0c-1.094 0-1.763-.752-1.763-1.907 0-1.141.683-1.928 1.715-1.928.848 0 1.648.527 1.648 1.867v.259h-2.639c.021.705.434 1.108 1.046 1.108.417 0 .684-.178.807-.403h.738c-.164.601-.738 1.004-1.552 1.004zm-1.032-2.255h1.914c0-.568-.362-.978-.923-.978-.584 0-.964.451-.991.978z" fill="#fff"/>
        <rect opacity=".2" x="305.681" y="263.927" width="31" height="12" rx="6" fill="#000"/>
        <path d="m310.759 272.927 2.313-4.54v-.039h-2.703v-1.078h4.085v1.086l-2.32 4.571h-1.375zm6.625.078c-1.469 0-2.367-1.055-2.367-2.907 0-1.851.898-2.906 2.367-2.906 1.469 0 2.367 1.055 2.367 2.906 0 1.86-.898 2.907-2.367 2.907zm0-1.086c.602 0 1-.571 1-1.821 0-1.234-.398-1.828-1-1.828-.601 0-.992.594-1 1.828-.008 1.25.399 1.821 1 1.821zm5.406 1.086c-1.234 0-2.359-.735-2.359-2.805.008-1.875.945-3.008 2.391-3.008 1.187 0 1.992.758 2.101 1.703h-1.312c-.086-.367-.391-.562-.789-.562-.719 0-1.071.648-1.071 1.679h.039c.243-.507.813-.812 1.446-.812 1.023 0 1.75.758 1.75 1.812 0 1.18-.891 1.993-2.196 1.993zm-.007-1.032c.523 0 .914-.39.906-.921a.875.875 0 0 0-.899-.915.898.898 0 0 0-.914.922c0 .508.383.914.907.914zm9-4.609v.891h-5.993v-.891h2.43v-.797h1.125v.797h2.438zm.296 4.719v.898h-6.554v-.898h2.695v-.774c-1.199-.113-1.922-.613-1.922-1.39 0-.883.953-1.407 2.485-1.407 1.507 0 2.468.524 2.468 1.407 0 .773-.726 1.277-1.906 1.39v.774h2.734zm-3.296-2.696c-.883 0-1.321.157-1.321.532 0 .383.438.531 1.321.531.859 0 1.312-.148 1.312-.531 0-.375-.453-.532-1.312-.532z" fill="#fff"/>
        <path opacity=".7" d="M197.89 475.596c1.515 0 2.468.477 2.476 1.297-.008.813-.961 1.297-2.476 1.289-1.5.008-2.461-.476-2.461-1.289 0-.82.961-1.297 2.461-1.297zm0 .563c-1.063 0-1.727.273-1.719.734-.008.453.656.719 1.719.719 1.07 0 1.734-.266 1.742-.719-.008-.461-.672-.734-1.742-.734zm2.422-4.617v.586c0 .562 0 1.14-.196 1.859l-.726-.078c.187-.715.187-1.231.187-1.774h-4.094v-.593h4.829zm.796 2.875v.601h-6.367v-.601h2.555v-1.313h.726v1.313h3.086zm6.946 2.296v.61h-6.407v-.61h2.829v-1.656h.742v1.656h2.836zm-2.828-4.242c0 1.071 1.211 2.024 2.546 2.235l-.296.586c-1.129-.215-2.172-.872-2.625-1.789-.457.929-1.493 1.605-2.602 1.82l-.305-.586c1.305-.219 2.508-1.195 2.508-2.266v-.062h-2.273v-.61h5.32v.61h-2.273v.062zm9.132-1.273v3.601h-.734v-3.601h.734zm.008 3.937v1.75h-3.859v.649h4.094v.594h-4.813v-1.805h3.844v-.602h-3.867v-.586h4.601zm-3.258-3.211c-.007.938.672 1.789 1.743 2.125l-.368.579c-.816-.266-1.429-.821-1.742-1.532a2.956 2.956 0 0 1-1.781 1.664l-.375-.586c1.094-.367 1.766-1.281 1.766-2.25v-.539h.757v.539z" fill="#fff"/>
        <g opacity=".45" stroke="#fff" stroke-width=".8">
            <rect opacity=".4" x="217.4" y="147.4" width="13.2" height="13.2" rx="1.6"/>
            <g clip-path="url(#q7fvbykrnb)" stroke-linecap="round" stroke-linejoin="round">
                <path d="M221.083 151.083c0 .221.088.433.244.59a.837.837 0 0 0 1.179 0 .837.837 0 0 0 0-1.179.833.833 0 0 0-1.423.589zM221.083 158.167v-2.084l-.416-.416V154a.419.419 0 0 1 .416-.417h1.667a.419.419 0 0 1 .417.417v1.667l-.417.416v2.084M225.25 151.083a.833.833 0 1 0 1.666.001.833.833 0 0 0-1.666-.001zM225.25 158.167V156.5h-.833l.833-2.5a.419.419 0 0 1 .417-.417h.833a.419.419 0 0 1 .417.417l.833 2.5h-.833v1.667"/>
            </g>
            <rect opacity=".4" x="264.4" y="4.4" width="13.2" height="13.2" rx="1.6"/>
            <g clip-path="url(#nuqa5alv1c)" stroke-linecap="round" stroke-linejoin="round">
                <path d="M271.417 11v.004M267.25 14.75h7.5M268.083 14.75V8.083a.834.834 0 0 1 .834-.833h2.5m1.666 4.375v3.125M274.75 8.917h-2.917m0 0 1.25-1.25m-1.25 1.25 1.25 1.25"/>
            </g>
            <rect opacity=".4" x="265.4" y="471.4" width="13.2" height="13.2" rx="1.6"/>
            <g clip-path="url(#458m5pnjsd)" stroke-linecap="round" stroke-linejoin="round">
                <path d="M272.417 478v.004M268.25 481.75h7.5M269.083 481.75v-6.667a.833.833 0 0 1 .834-.833h2.5m1.666 4.375v3.125M275.75 475.917h-2.917m0 0 1.25-1.25m-1.25 1.25 1.25 1.25"/>
            </g>
            <rect opacity=".4" x="217.4" y="197.4" width="13.2" height="13.2" rx="1.6"/>
            <path d="M227 201.5h-1.5v1.667H224v1.666h-1.5v1.667H221" stroke-linecap="round" stroke-linejoin="round"/>
            <rect opacity=".4" x="6.4" y="118.4" width="13.2" height="13.2" rx="1.6"/>
            <path d="M16 122.5h-1.5v1.667H13v1.666h-1.5v1.667H10" stroke-linecap="round" stroke-linejoin="round"/>
            <rect opacity=".4" x="199.4" y="251.4" width="13.2" height="13.2" rx="1.6"/>
            <g clip-path="url(#yk1a3cskse)" stroke-linecap="round" stroke-linejoin="round">
                <path d="M203.083 255.083a.416.416 0 0 1 .417-.416h5a.417.417 0 0 1 .417.416v5.834a.416.416 0 0 1-.417.416h-5a.416.416 0 0 1-.417-.416v-5.834z"/>
                <path d="m205.167 257.167.833-.834.833.834M205.167 258.833l.833.834.833-.834"/>
            </g>
            <rect opacity=".4" x="86.4" y="137.4" width="13.2" height="13.2" rx="1.6"/>
            <g clip-path="url(#04x8kt0orf)" stroke-linecap="round" stroke-linejoin="round">
                <path d="M90.083 141.083a.416.416 0 0 1 .417-.416h5a.417.417 0 0 1 .417.416v5.834a.416.416 0 0 1-.417.416h-5a.417.417 0 0 1-.417-.416v-5.834z"/>
                <path d="m92.167 143.167.833-.834.833.834M92.167 144.833l.833.834.833-.834"/>
            </g>
            <rect opacity=".4" x="219.4" y="251.4" width="13.2" height="13.2" rx="1.6"/>
            <g clip-path="url(#61n23tid5g)" stroke-linecap="round" stroke-linejoin="round">
                <path d="M223.083 255.083a.416.416 0 0 1 .417-.416h5a.417.417 0 0 1 .417.416v5.834a.416.416 0 0 1-.417.416h-5a.416.416 0 0 1-.417-.416v-5.834z"/>
                <path d="m225.167 257.167.833-.834.833.834M225.167 258.833l.833.834.833-.834"/>
            </g>
            <rect opacity=".4" x="239.4" y="251.4" width="13.2" height="13.2" rx="1.6"/>
            <g clip-path="url(#6a0zlgcbsh)" stroke-linecap="round" stroke-linejoin="round">
                <path d="M243.083 255.083a.416.416 0 0 1 .417-.416h5a.417.417 0 0 1 .417.416v5.834a.416.416 0 0 1-.417.416h-5a.416.416 0 0 1-.417-.416v-5.834z"/>
                <path d="m245.167 257.167.833-.834.833.834M245.167 258.833l.833.834.833-.834"/>
            </g>
            <rect opacity=".4" x="22.4" y="118.4" width="13.2" height="13.2" rx="1.6"/>
            <g clip-path="url(#qy692q3ugi)" stroke-linecap="round" stroke-linejoin="round">
                <path d="M29.417 125v.004M25.25 128.75h7.5M26.083 128.75v-6.667a.832.832 0 0 1 .834-.833h2.5m1.666 4.375v3.125M32.75 122.917h-2.917m0 0 1.25-1.25m-1.25 1.25 1.25 1.25"/>
            </g>
            <rect opacity=".4" x="86.4" y="152.4" width="13.2" height="13.2" rx="1.6"/>
            <g clip-path="url(#nadawsxlej)" stroke-linecap="round" stroke-linejoin="round">
                <path d="M93.417 159v.004M89.25 162.75h7.5M90.083 162.75v-6.667a.832.832 0 0 1 .834-.833h2.5m1.666 4.375v3.125M96.75 156.917h-2.917m0 0 1.25-1.25m-1.25 1.25 1.25 1.25"/>
            </g>
            <rect opacity=".4" x="235.4" y="410.4" width="13.2" height="13.2" rx="1.6"/>
            <g clip-path="url(#myqqm99sik)" stroke-linecap="round" stroke-linejoin="round">
                <path d="M239.083 414.083c0 .221.088.433.244.59a.837.837 0 0 0 1.179 0 .837.837 0 0 0 0-1.179.833.833 0 0 0-1.423.589zM239.083 421.167v-2.084l-.416-.416V417a.419.419 0 0 1 .416-.417h1.667a.419.419 0 0 1 .417.417v1.667l-.417.416v2.084M243.25 414.083a.833.833 0 1 0 1.666.001.833.833 0 0 0-1.666-.001zM243.25 421.167V419.5h-.833l.833-2.5a.419.419 0 0 1 .417-.417h.833a.419.419 0 0 1 .417.417l.833 2.5h-.833v1.667"/>
            </g>
            <rect opacity=".4" x="158.4" y="399.4" width="13.2" height="13.2" rx="1.6"/>
            <g clip-path="url(#6oy38box8l)" stroke-linecap="round" stroke-linejoin="round">
                <path d="M162.083 403.083a.416.416 0 0 1 .417-.416h5a.417.417 0 0 1 .417.416v5.834a.416.416 0 0 1-.417.416h-5a.416.416 0 0 1-.417-.416v-5.834z"/>
                <path d="m164.167 405.167.833-.834.833.834M164.167 406.833l.833.834.833-.834"/>
            </g>
            <rect opacity=".4" x="178.4" y="399.4" width="13.2" height="13.2" rx="1.6"/>
            <path d="M188 403.5h-1.5v1.667H185v1.666h-1.5v1.667H182" stroke-linecap="round" stroke-linejoin="round"/>
            <rect opacity=".4" x="158.4" y="417.4" width="13.2" height="13.2" rx="1.6"/>
            <g clip-path="url(#hhm03wl6sm)" stroke-linecap="round" stroke-linejoin="round">
                <path d="M165.417 424v.004M161.25 427.75h7.5M162.083 427.75v-6.667a.833.833 0 0 1 .834-.833h2.5m1.666 4.375v3.125M168.75 421.917h-2.917m0 0 1.25-1.25m-1.25 1.25 1.25 1.25"/>
            </g>
            <rect opacity=".4" x="178.4" y="417.4" width="13.2" height="13.2" rx="1.6"/>
            <g clip-path="url(#25ddkgu43n)" stroke-linecap="round" stroke-linejoin="round">
                <path d="M185.417 424v.004M181.25 427.75h7.5M182.083 427.75v-6.667a.833.833 0 0 1 .834-.833h2.5m1.666 4.375v3.125M188.75 421.917h-2.917m0 0 1.25-1.25m-1.25 1.25 1.25 1.25"/>
            </g>
        </g>
        <path d="M73 135h.5l11 52H84l-11-52zM165.5 240h.5l34 153h-.5l-34-153z" fill="#777"/>
    </g>
    <defs>
        <clipPath id="ivol4l6ewa">
            <path fill="#fff" d="M0 0h360v491H0z"/>
        </clipPath>
        <clipPath id="q7fvbykrnb">
            <path fill="#fff" transform="translate(219 149)" d="M0 0h10v10H0z"/>
        </clipPath>
        <clipPath id="nuqa5alv1c">
            <path fill="#fff" transform="translate(266 6)" d="M0 0h10v10H0z"/>
        </clipPath>
        <clipPath id="458m5pnjsd">
            <path fill="#fff" transform="translate(267 473)" d="M0 0h10v10H0z"/>
        </clipPath>
        <clipPath id="yk1a3cskse">
            <path fill="#fff" transform="translate(201 253)" d="M0 0h10v10H0z"/>
        </clipPath>
        <clipPath id="04x8kt0orf">
            <path fill="#fff" transform="translate(88 139)" d="M0 0h10v10H0z"/>
        </clipPath>
        <clipPath id="61n23tid5g">
            <path fill="#fff" transform="translate(221 253)" d="M0 0h10v10H0z"/>
        </clipPath>
        <clipPath id="6a0zlgcbsh">
            <path fill="#fff" transform="translate(241 253)" d="M0 0h10v10H0z"/>
        </clipPath>
        <clipPath id="qy692q3ugi">
            <path fill="#fff" transform="translate(24 120)" d="M0 0h10v10H0z"/>
        </clipPath>
        <clipPath id="nadawsxlej">
            <path fill="#fff" transform="translate(88 154)" d="M0 0h10v10H0z"/>
        </clipPath>
        <clipPath id="myqqm99sik">
            <path fill="#fff" transform="translate(237 412)" d="M0 0h10v10H0z"/>
        </clipPath>
        <clipPath id="6oy38box8l">
            <path fill="#fff" transform="translate(160 401)" d="M0 0h10v10H0z"/>
        </clipPath>
        <clipPath id="hhm03wl6sm">
            <path fill="#fff" transform="translate(160 419)" d="M0 0h10v10H0z"/>
        </clipPath>
        <clipPath id="25ddkgu43n">
            <path fill="#fff" transform="translate(180 419)" d="M0 0h10v10H0z"/>
        </clipPath>
    </defs>
</svg>
