<svg width="15" height="15" viewBox="0 0 15 15" fill="none" xmlns="http://www.w3.org/2000/svg">
    <path d="M5.545 5.533a3.9 3.9 0 1 1 3.588 3.589" stroke="#fff" stroke-width="1.3" stroke-linecap="round" stroke-linejoin="round"/>
    <path d="M13.333 10.334a1.8 1.8 0 0 1-1.8 1.8h-1.2m0 0 1.2-1.2m-1.2 1.2 1.2 1.2m-10.2-9a1.8 1.8 0 0 1 1.8-1.8h1.2m0 0-1.2 1.2m1.2-1.2-1.2-1.2m2.1 12a3.9 3.9 0 1 1 0-7.8 3.9 3.9 0 0 1 0 7.8z" stroke="#fff" stroke-width="1.3" stroke-linecap="round" stroke-linejoin="round"/>
</svg>
