<svg width="82" height="14" viewBox="0 0 82 14" fill="none" xmlns="http://www.w3.org/2000/svg">
    <path d="M.896 13V.273h.58v6.082h7.91V.273h.58V13h-.58V6.918h-7.91V13h-.58zm11.777 0h-.615L16.61.273h.721L21.901 13h-.615l-1.494-4.184h-5.625L12.673 13zm1.687-4.746H19.6l-2.584-7.242h-.07L14.36 8.254zM23.993 13V.273h4.06c2.216 0 3.481 1.266 3.481 3.252 0 1.512-.738 2.655-1.951 2.954v.07c1.354.105 2.46 1.37 2.46 3.181 0 1.952-1.3 3.27-3.603 3.27h-4.447zm4.447-.563c1.881 0 3.024-1.09 3.024-2.707 0-1.705-1.248-2.918-3.024-2.918h-3.867v5.625h3.867zm-.035-6.17c1.67 0 2.567-1.247 2.567-2.742 0-1.705-1.09-2.707-2.918-2.707h-3.48v5.45h3.831zM35.437.274V13h-.58V.273h.58zm13.43 6.364c0 3.902-2.163 6.539-5.327 6.539s-5.326-2.637-5.326-6.54c0-3.902 2.18-6.538 5.326-6.538 3.164 0 5.326 2.619 5.326 6.539zm-.563 0C48.286 3.033 46.352.66 43.54.66c-2.795 0-4.746 2.356-4.746 5.977 0 3.568 1.916 5.976 4.746 5.976 2.813 0 4.764-2.373 4.764-5.976zm8.103 6.504a1.373 1.373 0 0 1-1.37-1.371 1.37 1.37 0 0 1 1.37-1.354c.72 0 1.354.615 1.354 1.354 0 .755-.633 1.37-1.354 1.37zM64.476 13 70.31 1.768V1.68H63.58V.273h8.367V1.75L66.128 13h-1.652zm9.738 0V.273h7.664V1.68h-6.082v4.254h5.502v1.388h-5.502V13h-1.582z" fill="#fff"/>
</svg>
