<svg width="14" height="11" viewBox="0 0 14 11" fill="none" xmlns="http://www.w3.org/2000/svg">
    <path d="M2.188 1.24h8.822a1.604 1.604 0 0 1 1.605 1.604v.4a.401.401 0 0 0 .4.402.401.401 0 0 1 .402.4v2.407a.4.4 0 0 1-.401.401.401.401 0 0 0-.401.401v.401A1.604 1.604 0 0 1 11.01 9.26H2.188A1.604 1.604 0 0 1 .583 7.656V2.844A1.604 1.604 0 0 1 2.188 1.24zM2.99 3.646v3.208M5.396 3.646v3.208M7.802 3.646v3.208M10.208 3.646v3.208" stroke="#888" stroke-linecap="round" stroke-linejoin="round"/>
</svg>
